<svg xmlns="http://www.w3.org/2000/svg" width="640" height="420">
<text x="320.00" y="24" text-anchor="middle" font-size="16" fill="#222">PR Curve</text>
<line x1="40" y1="380" x2="600" y2="380" stroke="#333"/><line x1="40" y1="380" x2="40" y2="40" stroke="#333"/>
<polyline fill="none" stroke="#00c26d" stroke-width="2" points="600.00,295.37 600.00,270.55 598.90,264.08 597.80,259.69 597.80,255.33 596.69,252.63 596.69,249.33 593.39,247.18 592.28,243.84 591.18,241.34 591.18,238.69 590.08,236.34 590.08,233.87 590.08,230.12 587.87,228.72 587.87,227.90 586.77,225.99 585.67,224.02 585.67,221.97 585.67,220.02 584.57,217.72 584.57,213.70 582.36,212.38 581.26,209.65 580.16,206.82 577.95,205.53 576.85,203.66 575.75,200.98 572.44,199.54 571.34,197.71 571.34,194.82 566.93,191.68 563.62,190.00 560.32,188.95 557.01,187.65 555.91,186.42 555.91,183.80 553.70,180.70 553.70,180.20 552.60,178.34 552.60,177.31 551.50,175.91 547.09,174.48 538.27,173.44 537.17,171.66 537.17,169.66 536.06,168.67 533.86,167.86 532.76,166.54 530.55,164.47 530.55,163.55 528.35,162.97 525.04,161.61 523.94,160.82 519.53,159.58 510.71,158.35 505.20,156.51 499.68,154.95 495.28,153.15 488.66,152.40 483.15,150.29 475.43,149.64 463.31,149.74 457.80,145.28 443.46,145.21 437.95,142.13 432.44,140.32 429.13,139.00 428.03,135.76 419.21,132.20 415.91,125.75 412.60,122.33 405.98,118.70 397.17,118.34 391.65,115.46 387.24,114.24 378.43,110.98 370.71,108.72 359.68,106.11 347.56,104.24 338.74,101.63 328.82,101.62 323.31,98.13 315.59,94.77 310.08,90.76 299.05,89.45 288.03,85.77 283.62,84.17 273.70,82.15 263.78,77.28 256.06,68.60 245.04,65.37 232.91,60.11 224.09,55.54 207.56,54.97 192.13,54.17 173.39,50.88 153.54,52.71 133.70,43.95 109.45,45.31 40.00,40.00"/>
<text x="320.00" y="412" text-anchor="middle" font-size="12" fill="#555">X</text>
<text x="12" y="210.00" text-anchor="middle" font-size="12" fill="#555" transform="rotate(-90 12,210.00)">Y</text>
</svg>