<?xml version="1.0" encoding="utf-8" standalone="no"?>
<!DOCTYPE svg PUBLIC "-//W3C//DTD SVG 1.1//EN"
  "http://www.w3.org/Graphics/SVG/1.1/DTD/svg11.dtd">
<svg xmlns:xlink="http://www.w3.org/1999/xlink" width="504pt" height="396pt" viewBox="0 0 504 396" xmlns="http://www.w3.org/2000/svg" version="1.1">
 <metadata>
  <rdf:RDF xmlns:dc="http://purl.org/dc/elements/1.1/" xmlns:cc="http://creativecommons.org/ns#" xmlns:rdf="http://www.w3.org/1999/02/22-rdf-syntax-ns#">
   <cc:Work>
    <dc:type rdf:resource="http://purl.org/dc/dcmitype/StillImage"/>
    <dc:date>2026-04-24T13:35:22.757035</dc:date>
    <dc:format>image/svg+xml</dc:format>
    <dc:creator>
     <cc:Agent>
      <dc:title>Matplotlib v3.10.9, https://matplotlib.org/</dc:title>
     </cc:Agent>
    </dc:creator>
   </cc:Work>
  </rdf:RDF>
 </metadata>
 <defs>
  <style type="text/css">*{stroke-linejoin: round; stroke-linecap: butt}</style>
 </defs>
 <g id="figure_1">
  <g id="patch_1">
   <path d="M 0 396 
L 504 396 
L 504 0 
L 0 0 
z
" style="fill: #ffffff"/>
  </g>
  <g id="axes_1">
   <g id="patch_2">
    <path d="M 51.41 350.44 
L 483.09 350.44 
L 483.09 29.76 
L 51.41 29.76 
z
" style="fill: #ffffff"/>
   </g>
   <g id="matplotlib.axis_1">
    <g id="xtick_1">
     <g id="line2d_1">
      <path d="M 51.41 350.44 
L 51.41 29.76 
" clip-path="url(#pd70a967b28)" style="fill: none; stroke-dasharray: 2.96,1.28; stroke-dashoffset: 0; stroke: #b0b0b0; stroke-opacity: 0.6; stroke-width: 0.8"/>
     </g>
     <g id="line2d_2">
      <defs>
       <path id="m58ad703a86" d="M 0 0 
L 0 3.5 
" style="stroke: #000000; stroke-width: 0.8"/>
      </defs>
      <g>
       <use xlink:href="#m58ad703a86" x="51.41" y="350.44" style="stroke: #000000; stroke-width: 0.8"/>
      </g>
     </g>
     <g id="text_1">
      <!-- 0.0 -->
      <g transform="translate(43.458437 365.038437) scale(0.1 -0.1)">
       <defs>
        <path id="DejaVuSans-30" d="M 2034 4250 
Q 1547 4250 1301 3770 
Q 1056 3291 1056 2328 
Q 1056 1369 1301 889 
Q 1547 409 2034 409 
Q 2525 409 2770 889 
Q 3016 1369 3016 2328 
Q 3016 3291 2770 3770 
Q 2525 4250 2034 4250 
z
M 2034 4750 
Q 2819 4750 3233 4129 
Q 3647 3509 3647 2328 
Q 3647 1150 3233 529 
Q 2819 -91 2034 -91 
Q 1250 -91 836 529 
Q 422 1150 422 2328 
Q 422 3509 836 4129 
Q 1250 4750 2034 4750 
z
" transform="scale(0.015625)"/>
        <path id="DejaVuSans-2e" d="M 684 794 
L 1344 794 
L 1344 0 
L 684 0 
L 684 794 
z
" transform="scale(0.015625)"/>
       </defs>
       <use xlink:href="#DejaVuSans-30"/>
       <use xlink:href="#DejaVuSans-2e" transform="translate(63.623047 0)"/>
       <use xlink:href="#DejaVuSans-30" transform="translate(95.410156 0)"/>
      </g>
     </g>
    </g>
    <g id="xtick_2">
     <g id="line2d_3">
      <path d="M 137.746 350.44 
L 137.746 29.76 
" clip-path="url(#pd70a967b28)" style="fill: none; stroke-dasharray: 2.96,1.28; stroke-dashoffset: 0; stroke: #b0b0b0; stroke-opacity: 0.6; stroke-width: 0.8"/>
     </g>
     <g id="line2d_4">
      <g>
       <use xlink:href="#m58ad703a86" x="137.746" y="350.44" style="stroke: #000000; stroke-width: 0.8"/>
      </g>
     </g>
     <g id="text_2">
      <!-- 0.2 -->
      <g transform="translate(129.794438 365.038437) scale(0.1 -0.1)">
       <defs>
        <path id="DejaVuSans-32" d="M 1228 531 
L 3431 531 
L 3431 0 
L 469 0 
L 469 531 
Q 828 903 1448 1529 
Q 2069 2156 2228 2338 
Q 2531 2678 2651 2914 
Q 2772 3150 2772 3378 
Q 2772 3750 2511 3984 
Q 2250 4219 1831 4219 
Q 1534 4219 1204 4116 
Q 875 4013 500 3803 
L 500 4441 
Q 881 4594 1212 4672 
Q 1544 4750 1819 4750 
Q 2544 4750 2975 4387 
Q 3406 4025 3406 3419 
Q 3406 3131 3298 2873 
Q 3191 2616 2906 2266 
Q 2828 2175 2409 1742 
Q 1991 1309 1228 531 
z
" transform="scale(0.015625)"/>
       </defs>
       <use xlink:href="#DejaVuSans-30"/>
       <use xlink:href="#DejaVuSans-2e" transform="translate(63.623047 0)"/>
       <use xlink:href="#DejaVuSans-32" transform="translate(95.410156 0)"/>
      </g>
     </g>
    </g>
    <g id="xtick_3">
     <g id="line2d_5">
      <path d="M 224.082 350.44 
L 224.082 29.76 
" clip-path="url(#pd70a967b28)" style="fill: none; stroke-dasharray: 2.96,1.28; stroke-dashoffset: 0; stroke: #b0b0b0; stroke-opacity: 0.6; stroke-width: 0.8"/>
     </g>
     <g id="line2d_6">
      <g>
       <use xlink:href="#m58ad703a86" x="224.082" y="350.44" style="stroke: #000000; stroke-width: 0.8"/>
      </g>
     </g>
     <g id="text_3">
      <!-- 0.4 -->
      <g transform="translate(216.130438 365.038437) scale(0.1 -0.1)">
       <defs>
        <path id="DejaVuSans-34" d="M 2419 4116 
L 825 1625 
L 2419 1625 
L 2419 4116 
z
M 2253 4666 
L 3047 4666 
L 3047 1625 
L 3713 1625 
L 3713 1100 
L 3047 1100 
L 3047 0 
L 2419 0 
L 2419 1100 
L 313 1100 
L 313 1709 
L 2253 4666 
z
" transform="scale(0.015625)"/>
       </defs>
       <use xlink:href="#DejaVuSans-30"/>
       <use xlink:href="#DejaVuSans-2e" transform="translate(63.623047 0)"/>
       <use xlink:href="#DejaVuSans-34" transform="translate(95.410156 0)"/>
      </g>
     </g>
    </g>
    <g id="xtick_4">
     <g id="line2d_7">
      <path d="M 310.418 350.44 
L 310.418 29.76 
" clip-path="url(#pd70a967b28)" style="fill: none; stroke-dasharray: 2.96,1.28; stroke-dashoffset: 0; stroke: #b0b0b0; stroke-opacity: 0.6; stroke-width: 0.8"/>
     </g>
     <g id="line2d_8">
      <g>
       <use xlink:href="#m58ad703a86" x="310.418" y="350.44" style="stroke: #000000; stroke-width: 0.8"/>
      </g>
     </g>
     <g id="text_4">
      <!-- 0.6 -->
      <g transform="translate(302.466438 365.038437) scale(0.1 -0.1)">
       <defs>
        <path id="DejaVuSans-36" d="M 2113 2584 
Q 1688 2584 1439 2293 
Q 1191 2003 1191 1497 
Q 1191 994 1439 701 
Q 1688 409 2113 409 
Q 2538 409 2786 701 
Q 3034 994 3034 1497 
Q 3034 2003 2786 2293 
Q 2538 2584 2113 2584 
z
M 3366 4563 
L 3366 3988 
Q 3128 4100 2886 4159 
Q 2644 4219 2406 4219 
Q 1781 4219 1451 3797 
Q 1122 3375 1075 2522 
Q 1259 2794 1537 2939 
Q 1816 3084 2150 3084 
Q 2853 3084 3261 2657 
Q 3669 2231 3669 1497 
Q 3669 778 3244 343 
Q 2819 -91 2113 -91 
Q 1303 -91 875 529 
Q 447 1150 447 2328 
Q 447 3434 972 4092 
Q 1497 4750 2381 4750 
Q 2619 4750 2861 4703 
Q 3103 4656 3366 4563 
z
" transform="scale(0.015625)"/>
       </defs>
       <use xlink:href="#DejaVuSans-30"/>
       <use xlink:href="#DejaVuSans-2e" transform="translate(63.623047 0)"/>
       <use xlink:href="#DejaVuSans-36" transform="translate(95.410156 0)"/>
      </g>
     </g>
    </g>
    <g id="xtick_5">
     <g id="line2d_9">
      <path d="M 396.754 350.44 
L 396.754 29.76 
" clip-path="url(#pd70a967b28)" style="fill: none; stroke-dasharray: 2.96,1.28; stroke-dashoffset: 0; stroke: #b0b0b0; stroke-opacity: 0.6; stroke-width: 0.8"/>
     </g>
     <g id="line2d_10">
      <g>
       <use xlink:href="#m58ad703a86" x="396.754" y="350.44" style="stroke: #000000; stroke-width: 0.8"/>
      </g>
     </g>
     <g id="text_5">
      <!-- 0.8 -->
      <g transform="translate(388.802437 365.038437) scale(0.1 -0.1)">
       <defs>
        <path id="DejaVuSans-38" d="M 2034 2216 
Q 1584 2216 1326 1975 
Q 1069 1734 1069 1313 
Q 1069 891 1326 650 
Q 1584 409 2034 409 
Q 2484 409 2743 651 
Q 3003 894 3003 1313 
Q 3003 1734 2745 1975 
Q 2488 2216 2034 2216 
z
M 1403 2484 
Q 997 2584 770 2862 
Q 544 3141 544 3541 
Q 544 4100 942 4425 
Q 1341 4750 2034 4750 
Q 2731 4750 3128 4425 
Q 3525 4100 3525 3541 
Q 3525 3141 3298 2862 
Q 3072 2584 2669 2484 
Q 3125 2378 3379 2068 
Q 3634 1759 3634 1313 
Q 3634 634 3220 271 
Q 2806 -91 2034 -91 
Q 1263 -91 848 271 
Q 434 634 434 1313 
Q 434 1759 690 2068 
Q 947 2378 1403 2484 
z
M 1172 3481 
Q 1172 3119 1398 2916 
Q 1625 2713 2034 2713 
Q 2441 2713 2670 2916 
Q 2900 3119 2900 3481 
Q 2900 3844 2670 4047 
Q 2441 4250 2034 4250 
Q 1625 4250 1398 4047 
Q 1172 3844 1172 3481 
z
" transform="scale(0.015625)"/>
       </defs>
       <use xlink:href="#DejaVuSans-30"/>
       <use xlink:href="#DejaVuSans-2e" transform="translate(63.623047 0)"/>
       <use xlink:href="#DejaVuSans-38" transform="translate(95.410156 0)"/>
      </g>
     </g>
    </g>
    <g id="xtick_6">
     <g id="line2d_11">
      <path d="M 483.09 350.44 
L 483.09 29.76 
" clip-path="url(#pd70a967b28)" style="fill: none; stroke-dasharray: 2.96,1.28; stroke-dashoffset: 0; stroke: #b0b0b0; stroke-opacity: 0.6; stroke-width: 0.8"/>
     </g>
     <g id="line2d_12">
      <g>
       <use xlink:href="#m58ad703a86" x="483.09" y="350.44" style="stroke: #000000; stroke-width: 0.8"/>
      </g>
     </g>
     <g id="text_6">
      <!-- 1.0 -->
      <g transform="translate(475.138438 365.038437) scale(0.1 -0.1)">
       <defs>
        <path id="DejaVuSans-31" d="M 794 531 
L 1825 531 
L 1825 4091 
L 703 3866 
L 703 4441 
L 1819 4666 
L 2450 4666 
L 2450 531 
L 3481 531 
L 3481 0 
L 794 0 
L 794 531 
z
" transform="scale(0.015625)"/>
       </defs>
       <use xlink:href="#DejaVuSans-31"/>
       <use xlink:href="#DejaVuSans-2e" transform="translate(63.623047 0)"/>
       <use xlink:href="#DejaVuSans-30" transform="translate(95.410156 0)"/>
      </g>
     </g>
    </g>
    <g id="text_7">
     <!-- Recall -->
     <g transform="translate(249.349375 380.23625) scale(0.12 -0.12)">
      <defs>
       <path id="DejaVuSans-52" d="M 2841 2188 
Q 3044 2119 3236 1894 
Q 3428 1669 3622 1275 
L 4263 0 
L 3584 0 
L 2988 1197 
Q 2756 1666 2539 1819 
Q 2322 1972 1947 1972 
L 1259 1972 
L 1259 0 
L 628 0 
L 628 4666 
L 2053 4666 
Q 2853 4666 3247 4331 
Q 3641 3997 3641 3322 
Q 3641 2881 3436 2590 
Q 3231 2300 2841 2188 
z
M 1259 4147 
L 1259 2491 
L 2053 2491 
Q 2509 2491 2742 2702 
Q 2975 2913 2975 3322 
Q 2975 3731 2742 3939 
Q 2509 4147 2053 4147 
L 1259 4147 
z
" transform="scale(0.015625)"/>
       <path id="DejaVuSans-65" d="M 3597 1894 
L 3597 1613 
L 953 1613 
Q 991 1019 1311 708 
Q 1631 397 2203 397 
Q 2534 397 2845 478 
Q 3156 559 3463 722 
L 3463 178 
Q 3153 47 2828 -22 
Q 2503 -91 2169 -91 
Q 1331 -91 842 396 
Q 353 884 353 1716 
Q 353 2575 817 3079 
Q 1281 3584 2069 3584 
Q 2775 3584 3186 3129 
Q 3597 2675 3597 1894 
z
M 3022 2063 
Q 3016 2534 2758 2815 
Q 2500 3097 2075 3097 
Q 1594 3097 1305 2825 
Q 1016 2553 972 2059 
L 3022 2063 
z
" transform="scale(0.015625)"/>
       <path id="DejaVuSans-63" d="M 3122 3366 
L 3122 2828 
Q 2878 2963 2633 3030 
Q 2388 3097 2138 3097 
Q 1578 3097 1268 2742 
Q 959 2388 959 1747 
Q 959 1106 1268 751 
Q 1578 397 2138 397 
Q 2388 397 2633 464 
Q 2878 531 3122 666 
L 3122 134 
Q 2881 22 2623 -34 
Q 2366 -91 2075 -91 
Q 1284 -91 818 406 
Q 353 903 353 1747 
Q 353 2603 823 3093 
Q 1294 3584 2113 3584 
Q 2378 3584 2631 3529 
Q 2884 3475 3122 3366 
z
" transform="scale(0.015625)"/>
       <path id="DejaVuSans-61" d="M 2194 1759 
Q 1497 1759 1228 1600 
Q 959 1441 959 1056 
Q 959 750 1161 570 
Q 1363 391 1709 391 
Q 2188 391 2477 730 
Q 2766 1069 2766 1631 
L 2766 1759 
L 2194 1759 
z
M 3341 1997 
L 3341 0 
L 2766 0 
L 2766 531 
Q 2569 213 2275 61 
Q 1981 -91 1556 -91 
Q 1019 -91 701 211 
Q 384 513 384 1019 
Q 384 1609 779 1909 
Q 1175 2209 1959 2209 
L 2766 2209 
L 2766 2266 
Q 2766 2663 2505 2880 
Q 2244 3097 1772 3097 
Q 1472 3097 1187 3025 
Q 903 2953 641 2809 
L 641 3341 
Q 956 3463 1253 3523 
Q 1550 3584 1831 3584 
Q 2591 3584 2966 3190 
Q 3341 2797 3341 1997 
z
" transform="scale(0.015625)"/>
       <path id="DejaVuSans-6c" d="M 603 4863 
L 1178 4863 
L 1178 0 
L 603 0 
L 603 4863 
z
" transform="scale(0.015625)"/>
      </defs>
      <use xlink:href="#DejaVuSans-52"/>
      <use xlink:href="#DejaVuSans-65" transform="translate(64.982422 0)"/>
      <use xlink:href="#DejaVuSans-63" transform="translate(126.505859 0)"/>
      <use xlink:href="#DejaVuSans-61" transform="translate(181.486328 0)"/>
      <use xlink:href="#DejaVuSans-6c" transform="translate(242.765625 0)"/>
      <use xlink:href="#DejaVuSans-6c" transform="translate(270.548828 0)"/>
     </g>
    </g>
   </g>
   <g id="matplotlib.axis_2">
    <g id="ytick_1">
     <g id="line2d_13">
      <path d="M 51.41 350.44 
L 483.09 350.44 
" clip-path="url(#pd70a967b28)" style="fill: none; stroke-dasharray: 2.96,1.28; stroke-dashoffset: 0; stroke: #b0b0b0; stroke-opacity: 0.6; stroke-width: 0.8"/>
     </g>
     <g id="line2d_14">
      <defs>
       <path id="m326bdc2548" d="M 0 0 
L -3.5 0 
" style="stroke: #000000; stroke-width: 0.8"/>
      </defs>
      <g>
       <use xlink:href="#m326bdc2548" x="51.41" y="350.44" style="stroke: #000000; stroke-width: 0.8"/>
      </g>
     </g>
     <g id="text_8">
      <!-- 0.0 -->
      <g transform="translate(28.506875 354.239219) scale(0.1 -0.1)">
       <use xlink:href="#DejaVuSans-30"/>
       <use xlink:href="#DejaVuSans-2e" transform="translate(63.623047 0)"/>
       <use xlink:href="#DejaVuSans-30" transform="translate(95.410156 0)"/>
      </g>
     </g>
    </g>
    <g id="ytick_2">
     <g id="line2d_15">
      <path d="M 51.41 289.358095 
L 483.09 289.358095 
" clip-path="url(#pd70a967b28)" style="fill: none; stroke-dasharray: 2.96,1.28; stroke-dashoffset: 0; stroke: #b0b0b0; stroke-opacity: 0.6; stroke-width: 0.8"/>
     </g>
     <g id="line2d_16">
      <g>
       <use xlink:href="#m326bdc2548" x="51.41" y="289.358095" style="stroke: #000000; stroke-width: 0.8"/>
      </g>
     </g>
     <g id="text_9">
      <!-- 0.2 -->
      <g transform="translate(28.506875 293.157314) scale(0.1 -0.1)">
       <use xlink:href="#DejaVuSans-30"/>
       <use xlink:href="#DejaVuSans-2e" transform="translate(63.623047 0)"/>
       <use xlink:href="#DejaVuSans-32" transform="translate(95.410156 0)"/>
      </g>
     </g>
    </g>
    <g id="ytick_3">
     <g id="line2d_17">
      <path d="M 51.41 228.27619 
L 483.09 228.27619 
" clip-path="url(#pd70a967b28)" style="fill: none; stroke-dasharray: 2.96,1.28; stroke-dashoffset: 0; stroke: #b0b0b0; stroke-opacity: 0.6; stroke-width: 0.8"/>
     </g>
     <g id="line2d_18">
      <g>
       <use xlink:href="#m326bdc2548" x="51.41" y="228.27619" style="stroke: #000000; stroke-width: 0.8"/>
      </g>
     </g>
     <g id="text_10">
      <!-- 0.4 -->
      <g transform="translate(28.506875 232.075409) scale(0.1 -0.1)">
       <use xlink:href="#DejaVuSans-30"/>
       <use xlink:href="#DejaVuSans-2e" transform="translate(63.623047 0)"/>
       <use xlink:href="#DejaVuSans-34" transform="translate(95.410156 0)"/>
      </g>
     </g>
    </g>
    <g id="ytick_4">
     <g id="line2d_19">
      <path d="M 51.41 167.194286 
L 483.09 167.194286 
" clip-path="url(#pd70a967b28)" style="fill: none; stroke-dasharray: 2.96,1.28; stroke-dashoffset: 0; stroke: #b0b0b0; stroke-opacity: 0.6; stroke-width: 0.8"/>
     </g>
     <g id="line2d_20">
      <g>
       <use xlink:href="#m326bdc2548" x="51.41" y="167.194286" style="stroke: #000000; stroke-width: 0.8"/>
      </g>
     </g>
     <g id="text_11">
      <!-- 0.6 -->
      <g transform="translate(28.506875 170.993504) scale(0.1 -0.1)">
       <use xlink:href="#DejaVuSans-30"/>
       <use xlink:href="#DejaVuSans-2e" transform="translate(63.623047 0)"/>
       <use xlink:href="#DejaVuSans-36" transform="translate(95.410156 0)"/>
      </g>
     </g>
    </g>
    <g id="ytick_5">
     <g id="line2d_21">
      <path d="M 51.41 106.112381 
L 483.09 106.112381 
" clip-path="url(#pd70a967b28)" style="fill: none; stroke-dasharray: 2.96,1.28; stroke-dashoffset: 0; stroke: #b0b0b0; stroke-opacity: 0.6; stroke-width: 0.8"/>
     </g>
     <g id="line2d_22">
      <g>
       <use xlink:href="#m326bdc2548" x="51.41" y="106.112381" style="stroke: #000000; stroke-width: 0.8"/>
      </g>
     </g>
     <g id="text_12">
      <!-- 0.8 -->
      <g transform="translate(28.506875 109.9116) scale(0.1 -0.1)">
       <use xlink:href="#DejaVuSans-30"/>
       <use xlink:href="#DejaVuSans-2e" transform="translate(63.623047 0)"/>
       <use xlink:href="#DejaVuSans-38" transform="translate(95.410156 0)"/>
      </g>
     </g>
    </g>
    <g id="ytick_6">
     <g id="line2d_23">
      <path d="M 51.41 45.030476 
L 483.09 45.030476 
" clip-path="url(#pd70a967b28)" style="fill: none; stroke-dasharray: 2.96,1.28; stroke-dashoffset: 0; stroke: #b0b0b0; stroke-opacity: 0.6; stroke-width: 0.8"/>
     </g>
     <g id="line2d_24">
      <g>
       <use xlink:href="#m326bdc2548" x="51.41" y="45.030476" style="stroke: #000000; stroke-width: 0.8"/>
      </g>
     </g>
     <g id="text_13">
      <!-- 1.0 -->
      <g transform="translate(28.506875 48.829695) scale(0.1 -0.1)">
       <use xlink:href="#DejaVuSans-31"/>
       <use xlink:href="#DejaVuSans-2e" transform="translate(63.623047 0)"/>
       <use xlink:href="#DejaVuSans-30" transform="translate(95.410156 0)"/>
      </g>
     </g>
    </g>
    <g id="text_14">
     <!-- Precision -->
     <g transform="translate(22.01125 216.868437) rotate(-90) scale(0.12 -0.12)">
      <defs>
       <path id="DejaVuSans-50" d="M 1259 4147 
L 1259 2394 
L 2053 2394 
Q 2494 2394 2734 2622 
Q 2975 2850 2975 3272 
Q 2975 3691 2734 3919 
Q 2494 4147 2053 4147 
L 1259 4147 
z
M 628 4666 
L 2053 4666 
Q 2838 4666 3239 4311 
Q 3641 3956 3641 3272 
Q 3641 2581 3239 2228 
Q 2838 1875 2053 1875 
L 1259 1875 
L 1259 0 
L 628 0 
L 628 4666 
z
" transform="scale(0.015625)"/>
       <path id="DejaVuSans-72" d="M 2631 2963 
Q 2534 3019 2420 3045 
Q 2306 3072 2169 3072 
Q 1681 3072 1420 2755 
Q 1159 2438 1159 1844 
L 1159 0 
L 581 0 
L 581 3500 
L 1159 3500 
L 1159 2956 
Q 1341 3275 1631 3429 
Q 1922 3584 2338 3584 
Q 2397 3584 2469 3576 
Q 2541 3569 2628 3553 
L 2631 2963 
z
" transform="scale(0.015625)"/>
       <path id="DejaVuSans-69" d="M 603 3500 
L 1178 3500 
L 1178 0 
L 603 0 
L 603 3500 
z
M 603 4863 
L 1178 4863 
L 1178 4134 
L 603 4134 
L 603 4863 
z
" transform="scale(0.015625)"/>
       <path id="DejaVuSans-73" d="M 2834 3397 
L 2834 2853 
Q 2591 2978 2328 3040 
Q 2066 3103 1784 3103 
Q 1356 3103 1142 2972 
Q 928 2841 928 2578 
Q 928 2378 1081 2264 
Q 1234 2150 1697 2047 
L 1894 2003 
Q 2506 1872 2764 1633 
Q 3022 1394 3022 966 
Q 3022 478 2636 193 
Q 2250 -91 1575 -91 
Q 1294 -91 989 -36 
Q 684 19 347 128 
L 347 722 
Q 666 556 975 473 
Q 1284 391 1588 391 
Q 1994 391 2212 530 
Q 2431 669 2431 922 
Q 2431 1156 2273 1281 
Q 2116 1406 1581 1522 
L 1381 1569 
Q 847 1681 609 1914 
Q 372 2147 372 2553 
Q 372 3047 722 3315 
Q 1072 3584 1716 3584 
Q 2034 3584 2315 3537 
Q 2597 3491 2834 3397 
z
" transform="scale(0.015625)"/>
       <path id="DejaVuSans-6f" d="M 1959 3097 
Q 1497 3097 1228 2736 
Q 959 2375 959 1747 
Q 959 1119 1226 758 
Q 1494 397 1959 397 
Q 2419 397 2687 759 
Q 2956 1122 2956 1747 
Q 2956 2369 2687 2733 
Q 2419 3097 1959 3097 
z
M 1959 3584 
Q 2709 3584 3137 3096 
Q 3566 2609 3566 1747 
Q 3566 888 3137 398 
Q 2709 -91 1959 -91 
Q 1206 -91 779 398 
Q 353 888 353 1747 
Q 353 2609 779 3096 
Q 1206 3584 1959 3584 
z
" transform="scale(0.015625)"/>
       <path id="DejaVuSans-6e" d="M 3513 2113 
L 3513 0 
L 2938 0 
L 2938 2094 
Q 2938 2591 2744 2837 
Q 2550 3084 2163 3084 
Q 1697 3084 1428 2787 
Q 1159 2491 1159 1978 
L 1159 0 
L 581 0 
L 581 3500 
L 1159 3500 
L 1159 2956 
Q 1366 3272 1645 3428 
Q 1925 3584 2291 3584 
Q 2894 3584 3203 3211 
Q 3513 2838 3513 2113 
z
" transform="scale(0.015625)"/>
      </defs>
      <use xlink:href="#DejaVuSans-50"/>
      <use xlink:href="#DejaVuSans-72" transform="translate(58.552734 0)"/>
      <use xlink:href="#DejaVuSans-65" transform="translate(97.416016 0)"/>
      <use xlink:href="#DejaVuSans-63" transform="translate(158.939453 0)"/>
      <use xlink:href="#DejaVuSans-69" transform="translate(213.919922 0)"/>
      <use xlink:href="#DejaVuSans-73" transform="translate(241.703125 0)"/>
      <use xlink:href="#DejaVuSans-69" transform="translate(293.802734 0)"/>
      <use xlink:href="#DejaVuSans-6f" transform="translate(321.585938 0)"/>
      <use xlink:href="#DejaVuSans-6e" transform="translate(382.767578 0)"/>
     </g>
    </g>
   </g>
   <g id="line2d_25">
    <path d="M 483.09 274.42418 
L 483.09 252.120734 
L 482.240022 246.309096 
L 481.390476 242.372062 
L 481.390476 238.456406 
L 480.540498 236.024736 
L 480.540498 233.064096 
L 477.991428 231.12841 
L 477.14145 228.129594 
L 476.291903 225.884834 
L 476.291903 223.50325 
L 475.441925 221.397452 
L 475.441925 219.174376 
L 475.441925 215.811512 
L 473.742401 214.550476 
L 473.742401 213.816577 
L 472.892855 212.099259 
L 472.042877 210.330938 
L 472.042877 208.489013 
L 472.042877 206.735046 
L 471.193331 204.669561 
L 471.193331 201.061453 
L 469.493807 199.87738 
L 468.643829 197.42372 
L 467.794283 194.877827 
L 466.094758 193.720935 
L 465.24478 192.043321 
L 464.395234 189.628448 
L 461.845732 188.338092 
L 460.996186 186.694378 
L 460.996186 184.103895 
L 457.597138 181.279162 
L 455.047636 179.769828 
L 452.498565 178.828862 
L 449.949063 177.657005 
L 449.099517 176.557225 
L 449.099517 174.198853 
L 447.399993 171.419932 
L 447.399993 170.968537 
L 446.550015 169.297947 
L 446.550015 168.368891 
L 445.700468 167.115185 
L 442.30142 165.829716 
L 435.503324 164.895468 
L 434.653346 163.293595 
L 434.653346 161.496566 
L 433.803799 160.613627 
L 432.104275 159.878201 
L 431.254297 158.701152 
L 429.554773 156.839987 
L 429.554773 156.008967 
L 427.855249 155.488244 
L 425.306179 154.264468 
L 424.456201 153.560805 
L 421.057152 152.447281 
L 414.259056 151.341088 
L 410.010461 149.687906 
L 405.761435 148.287909 
L 402.362387 146.669239 
L 397.263814 145.996421 
L 393.01522 144.096163 
L 387.066669 143.515885 
L 377.719502 143.601705 
L 373.470476 139.601757 
L 362.423353 139.534567 
L 358.174758 136.771832 
L 353.925732 135.141556 
L 351.376662 133.95504 
L 350.526684 131.043877 
L 343.728587 127.853263 
L 341.179517 122.05262 
L 338.630015 118.986003 
L 333.531442 115.726978 
L 326.733346 115.398052 
L 322.484751 112.816425 
L 319.085703 111.720311 
L 312.287606 108.788685 
L 306.339056 106.762292 
L 297.841435 104.415526 
L 288.494268 102.738522 
L 281.696171 100.391755 
L 274.048097 100.385952 
L 269.799502 97.245732 
L 263.850952 94.22401 
L 259.601925 90.629951 
L 251.104305 89.453818 
L 242.606684 86.143179 
L 239.207636 84.709587 
L 231.559993 82.891179 
L 223.911918 78.518325 
L 217.963799 70.719082 
L 209.466179 67.822273 
L 200.11858 63.092395 
L 193.320483 58.991967 
L 180.574268 58.47613 
L 168.677599 57.755975 
L 154.231428 54.803581 
L 138.93571 56.4476 
L 123.639993 48.581778 
L 104.945227 49.8025 
L 51.41 45.030476 
" clip-path="url(#pd70a967b28)" style="fill: none; stroke: #e63946; stroke-width: 2; stroke-linecap: square"/>
   </g>
   <g id="line2d_26">
    <path d="M 483.09 274.42418 
L 482.240022 265.918831 
L 482.240022 261.552085 
L 482.240022 258.051787 
L 482.240022 254.562177 
L 481.390476 251.567942 
L 480.540498 248.971656 
L 479.690952 245.585581 
L 479.690952 244.210627 
L 479.690952 241.03956 
L 477.14145 239.321631 
L 477.14145 236.167973 
L 477.14145 233.905193 
L 477.14145 231.08718 
L 476.291903 228.859828 
L 475.441925 227.338889 
L 475.441925 225.726937 
L 473.742401 224.369697 
L 472.892855 222.390033 
L 472.042877 220.562157 
L 471.193331 219.246758 
L 468.643829 217.735592 
L 468.643829 215.587341 
L 466.094758 214.330581 
L 466.094758 212.695113 
L 464.395234 211.850655 
L 461.845732 210.085388 
L 459.296662 208.937659 
L 455.047636 206.948833 
L 454.198089 205.82065 
L 454.198089 204.361098 
L 454.198089 202.721659 
L 453.348111 200.741995 
L 449.099517 199.668175 
L 447.399993 198.225115 
L 447.399993 196.41312 
L 446.550015 194.550428 
L 444.850491 193.148903 
L 442.30142 191.336603 
L 439.751918 189.084819 
L 436.35287 188.24708 
L 436.35287 187.290843 
L 435.503324 185.708516 
L 432.104275 183.988145 
L 430.404751 182.896916 
L 429.554773 182.237843 
L 425.306179 180.553509 
L 421.90713 179.064638 
L 416.808558 177.86957 
L 415.109034 176.847365 
L 412.559532 175.035981 
L 410.010461 173.403261 
L 405.761435 172.816875 
L 401.51284 171.959591 
L 398.113792 170.63167 
L 395.56429 169.074998 
L 387.066669 166.542542 
L 381.11855 164.995643 
L 376.869524 163.285044 
L 371.770952 161.065938 
L 365.822401 158.586929 
L 362.423353 153.644487 
L 359.024305 149.789913 
L 353.076186 149.661641 
L 350.526684 146.833549 
L 342.029063 146.036736 
L 337.780468 143.351575 
L 336.080944 141.639755 
L 330.982372 139.790805 
L 325.883799 136.917818 
L 316.536201 136.310053 
L 315.686654 133.585189 
L 309.738104 133.513723 
L 303.789985 131.869704 
L 299.540959 128.046893 
L 294.442387 125.31867 
L 289.343814 123.610514 
L 281.696171 119.250182 
L 272.348572 118.934389 
L 264.700498 114.569781 
L 255.353331 113.993779 
L 249.40478 112.445353 
L 242.606684 111.007485 
L 234.959041 107.9088 
L 223.911918 105.38795 
L 213.714773 103.265353 
L 205.217152 104.755141 
L 199.269034 102.116403 
L 191.620959 98.477143 
L 184.822862 95.390674 
L 172.076647 93.823618 
L 161.029524 91.243824 
L 153.38145 82.928133 
L 144.883829 79.512128 
L 140.635234 73.991851 
L 126.189063 76.194769 
L 116.841896 60.112515 
L 109.193821 57.93525 
L 86.250461 52.302277 
L 72.654268 56.777137 
L 51.41 45.030476 
" clip-path="url(#pd70a967b28)" style="fill: none; stroke-dasharray: 7.4,3.2; stroke-dashoffset: 0; stroke: #457b9d; stroke-width: 2"/>
   </g>
   <g id="line2d_27">
    <path d="M 483.09 274.42418 
L 479.690952 264.061635 
L 478.840974 256.19398 
L 477.14145 250.039673 
L 473.742401 245.395921 
L 472.042877 241.600903 
L 472.042877 237.536513 
L 471.193331 234.026136 
L 470.343353 230.561875 
L 470.343353 228.42462 
L 468.643829 226.098315 
L 467.794283 223.40216 
L 467.794283 221.208098 
L 465.24478 219.049158 
L 464.395234 216.599468 
L 464.395234 215.13564 
L 462.69571 212.934554 
L 460.996186 211.434077 
L 459.296662 210.424088 
L 458.446684 208.822215 
L 458.446684 207.855899 
L 456.74716 206.487053 
L 455.897613 205.49997 
L 455.047636 205.225407 
L 454.198089 203.917643 
L 454.198089 202.721659 
L 454.198089 201.963938 
L 453.348111 201.205912 
L 453.348111 200.275024 
L 451.648587 199.180436 
L 450.799041 198.382401 
L 447.399993 198.062332 
L 447.399993 197.406923 
L 444.000944 197.237726 
L 442.30142 196.564298 
L 442.30142 194.341833 
L 441.451442 192.754009 
L 440.601896 192.564655 
L 439.751918 191.474037 
L 437.202848 190.329363 
L 433.803799 190.073124 
L 432.953821 189.867583 
L 432.953821 186.410348 
L 432.953821 185.025315 
L 432.104275 183.785353 
L 431.254297 182.107127 
L 430.404751 180.386756 
L 430.404751 179.318433 
L 428.705227 179.225588 
L 393.864766 185.231772 
L 392.165242 183.132387 
L 390.465717 182.590896 
L 389.616171 181.381474 
L 388.766193 180.148536 
L 386.217123 179.027683 
L 383.667621 178.371969 
L 382.818075 177.063289 
L 382.818075 176.303125 
L 380.268572 174.556793 
L 378.569048 172.553917 
L 374.320022 172.167269 
L 371.770952 171.095282 
L 367.521925 170.673511 
L 362.423353 171.305709 
L 359.874283 169.585642 
L 353.076186 168.220767 
L 348.82716 168.028054 
L 343.728587 166.122604 
L 334.38142 166.863527 
L 327.583324 165.945466 
L 321.634773 164.386045 
L 317.386179 163.00254 
L 308.03858 161.823048 
L 301.240483 160.20621 
L 296.141911 157.12585 
L 292.742862 152.411854 
L 287.64429 150.195192 
L 284.245242 146.833549 
L 279.996647 142.452144 
L 272.348572 139.812795 
L 269.799502 137.151151 
L 258.752379 135.685185 
L 253.653807 129.505529 
L 238.358089 126.473118 
L 226.46142 123.312435 
L 213.714773 124.342275 
L 196.719532 120.373784 
L 181.423814 116.801714 
L 161.029524 111.665337 
L 139.785256 109.81425 
L 117.691442 112.220571 
L 96.447606 101.413655 
L 82.001435 106.112381 
L 70.104766 110.475461 
L 63.306669 112.899191 
L 58.208097 106.112381 
L 55.659026 95.932165 
L 53.109524 146.833549 
L 51.41 45.030476 
L 51.41 45.030476 
L 51.41 45.030476 
" clip-path="url(#pd70a967b28)" style="fill: none; stroke-dasharray: 12.8,3.2,2,3.2; stroke-dashoffset: 0; stroke: #2a9d8f; stroke-width: 2"/>
   </g>
   <g id="line2d_28">
    <path d="M 483.09 274.42418 
L 483.09 274.42418 
L 483.09 274.42418 
L 483.09 274.38692 
L 483.09 274.34966 
L 483.09 274.34966 
L 483.09 274.27514 
L 483.09 274.27514 
L 483.09 274.27514 
L 483.09 274.125184 
L 483.09 274.050054 
L 483.09 273.937052 
L 483.09 273.634086 
L 483.09 273.405334 
L 483.09 272.943555 
L 483.09 272.122003 
L 483.09 271.120871 
L 483.09 269.507392 
L 483.09 267.517344 
L 483.09 265.100028 
L 482.240022 262.461289 
L 481.390476 259.482325 
L 481.390476 256.267279 
L 480.540498 253.194248 
L 478.840974 249.770913 
L 477.14145 246.492952 
L 476.291903 242.597759 
L 474.592379 238.523902 
L 469.493807 235.998776 
L 463.545256 232.601095 
L 462.69571 229.475839 
L 460.996186 226.004249 
L 453.348111 223.943651 
L 448.249539 221.366605 
L 440.601896 218.976165 
L 435.503324 217.191963 
L 428.705227 215.243755 
L 424.456201 211.933116 
L 418.508082 210.824174 
L 415.95858 208.335086 
L 412.559532 206.538668 
L 406.611413 204.708043 
L 397.263814 205.566244 
L 393.01522 204.10547 
L 390.465717 201.46887 
L 383.667621 200.609142 
L 373.470476 200.891951 
L 364.122877 200.785363 
L 353.925732 200.679997 
L 353.076186 199.856002 
L 346.278089 198.827688 
L 339.479993 198.631004 
L 330.132394 200.478426 
L 326.733346 199.367347 
L 319.935249 198.695751 
L 312.287606 198.968787 
L 308.03858 197.987506 
L 302.940007 196.95736 
L 296.141911 197.735238 
L 286.794744 197.459148 
L 278.297123 192.714 
L 269.799502 188.60441 
L 259.601925 181.914414 
L 246.005732 178.177118 
L 241.757138 173.207494 
L 234.959041 170.198294 
L 223.911918 169.158985 
L 218.813346 167.565664 
L 210.315725 169.707195 
L 206.06713 165.773826 
L 202.668082 163.625881 
L 194.170461 165.875833 
L 184.822862 166.019681 
L 181.423814 166.472908 
L 179.72429 162.207864 
L 171.226669 159.896831 
L 162.729048 159.011143 
L 157.630476 152.636025 
L 152.531903 151.840433 
L 150.832379 145.07836 
L 144.034283 142.379762 
L 137.236186 142.018768 
L 135.536662 139.002543 
L 130.438089 135.265247 
L 127.888587 130.545143 
L 126.189063 131.935672 
L 123.639993 124.702659 
L 121.090491 122.770943 
L 119.390966 113.228728 
L 115.991918 113.59186 
L 115.142372 109.327122 
L 114.292394 96.503892 
L 112.59287 85.5064 
L 110.043799 76.761304 
L 107.494297 74.316195 
L 103.245703 63.824767 
L 99.846654 65.0574 
L 97.297152 66.093349 
L 80.301911 77.178799 
L 64.156647 95.932165 
L 51.41 45.030476 
" clip-path="url(#pd70a967b28)" style="fill: none; stroke-dasharray: 2,3.3; stroke-dashoffset: 0; stroke: #f4a261; stroke-width: 2"/>
   </g>
   <g id="patch_3">
    <path d="M 51.41 350.44 
L 51.41 29.76 
" style="fill: none; stroke: #000000; stroke-width: 0.8; stroke-linejoin: miter; stroke-linecap: square"/>
   </g>
   <g id="patch_4">
    <path d="M 483.09 350.44 
L 483.09 29.76 
" style="fill: none; stroke: #000000; stroke-width: 0.8; stroke-linejoin: miter; stroke-linecap: square"/>
   </g>
   <g id="patch_5">
    <path d="M 51.41 350.44 
L 483.09 350.44 
" style="fill: none; stroke: #000000; stroke-width: 0.8; stroke-linejoin: miter; stroke-linecap: square"/>
   </g>
   <g id="patch_6">
    <path d="M 51.41 29.76 
L 483.09 29.76 
" style="fill: none; stroke: #000000; stroke-width: 0.8; stroke-linejoin: miter; stroke-linecap: square"/>
   </g>
   <g id="text_15">
    <!-- Precision-Recall (PR) Curve Comparison -->
    <g transform="translate(128.826094 23.76) scale(0.14 -0.14)">
     <defs>
      <path id="DejaVuSans-2d" d="M 313 2009 
L 1997 2009 
L 1997 1497 
L 313 1497 
L 313 2009 
z
" transform="scale(0.015625)"/>
      <path id="DejaVuSans-20" transform="scale(0.015625)"/>
      <path id="DejaVuSans-28" d="M 1984 4856 
Q 1566 4138 1362 3434 
Q 1159 2731 1159 2009 
Q 1159 1288 1364 580 
Q 1569 -128 1984 -844 
L 1484 -844 
Q 1016 -109 783 600 
Q 550 1309 550 2009 
Q 550 2706 781 3412 
Q 1013 4119 1484 4856 
L 1984 4856 
z
" transform="scale(0.015625)"/>
      <path id="DejaVuSans-29" d="M 513 4856 
L 1013 4856 
Q 1481 4119 1714 3412 
Q 1947 2706 1947 2009 
Q 1947 1309 1714 600 
Q 1481 -109 1013 -844 
L 513 -844 
Q 928 -128 1133 580 
Q 1338 1288 1338 2009 
Q 1338 2731 1133 3434 
Q 928 4138 513 4856 
z
" transform="scale(0.015625)"/>
      <path id="DejaVuSans-43" d="M 4122 4306 
L 4122 3641 
Q 3803 3938 3442 4084 
Q 3081 4231 2675 4231 
Q 1875 4231 1450 3742 
Q 1025 3253 1025 2328 
Q 1025 1406 1450 917 
Q 1875 428 2675 428 
Q 3081 428 3442 575 
Q 3803 722 4122 1019 
L 4122 359 
Q 3791 134 3420 21 
Q 3050 -91 2638 -91 
Q 1578 -91 968 557 
Q 359 1206 359 2328 
Q 359 3453 968 4101 
Q 1578 4750 2638 4750 
Q 3056 4750 3426 4639 
Q 3797 4528 4122 4306 
z
" transform="scale(0.015625)"/>
      <path id="DejaVuSans-75" d="M 544 1381 
L 544 3500 
L 1119 3500 
L 1119 1403 
Q 1119 906 1312 657 
Q 1506 409 1894 409 
Q 2359 409 2629 706 
Q 2900 1003 2900 1516 
L 2900 3500 
L 3475 3500 
L 3475 0 
L 2900 0 
L 2900 538 
Q 2691 219 2414 64 
Q 2138 -91 1772 -91 
Q 1169 -91 856 284 
Q 544 659 544 1381 
z
M 1991 3584 
L 1991 3584 
z
" transform="scale(0.015625)"/>
      <path id="DejaVuSans-76" d="M 191 3500 
L 800 3500 
L 1894 563 
L 2988 3500 
L 3597 3500 
L 2284 0 
L 1503 0 
L 191 3500 
z
" transform="scale(0.015625)"/>
      <path id="DejaVuSans-6d" d="M 3328 2828 
Q 3544 3216 3844 3400 
Q 4144 3584 4550 3584 
Q 5097 3584 5394 3201 
Q 5691 2819 5691 2113 
L 5691 0 
L 5113 0 
L 5113 2094 
Q 5113 2597 4934 2840 
Q 4756 3084 4391 3084 
Q 3944 3084 3684 2787 
Q 3425 2491 3425 1978 
L 3425 0 
L 2847 0 
L 2847 2094 
Q 2847 2600 2669 2842 
Q 2491 3084 2119 3084 
Q 1678 3084 1418 2786 
Q 1159 2488 1159 1978 
L 1159 0 
L 581 0 
L 581 3500 
L 1159 3500 
L 1159 2956 
Q 1356 3278 1631 3431 
Q 1906 3584 2284 3584 
Q 2666 3584 2933 3390 
Q 3200 3197 3328 2828 
z
" transform="scale(0.015625)"/>
      <path id="DejaVuSans-70" d="M 1159 525 
L 1159 -1331 
L 581 -1331 
L 581 3500 
L 1159 3500 
L 1159 2969 
Q 1341 3281 1617 3432 
Q 1894 3584 2278 3584 
Q 2916 3584 3314 3078 
Q 3713 2572 3713 1747 
Q 3713 922 3314 415 
Q 2916 -91 2278 -91 
Q 1894 -91 1617 61 
Q 1341 213 1159 525 
z
M 3116 1747 
Q 3116 2381 2855 2742 
Q 2594 3103 2138 3103 
Q 1681 3103 1420 2742 
Q 1159 2381 1159 1747 
Q 1159 1113 1420 752 
Q 1681 391 2138 391 
Q 2594 391 2855 752 
Q 3116 1113 3116 1747 
z
" transform="scale(0.015625)"/>
     </defs>
     <use xlink:href="#DejaVuSans-50"/>
     <use xlink:href="#DejaVuSans-72" transform="translate(58.552734 0)"/>
     <use xlink:href="#DejaVuSans-65" transform="translate(97.416016 0)"/>
     <use xlink:href="#DejaVuSans-63" transform="translate(158.939453 0)"/>
     <use xlink:href="#DejaVuSans-69" transform="translate(213.919922 0)"/>
     <use xlink:href="#DejaVuSans-73" transform="translate(241.703125 0)"/>
     <use xlink:href="#DejaVuSans-69" transform="translate(293.802734 0)"/>
     <use xlink:href="#DejaVuSans-6f" transform="translate(321.585938 0)"/>
     <use xlink:href="#DejaVuSans-6e" transform="translate(382.767578 0)"/>
     <use xlink:href="#DejaVuSans-2d" transform="translate(446.146484 0)"/>
     <use xlink:href="#DejaVuSans-52" transform="translate(482.230469 0)"/>
     <use xlink:href="#DejaVuSans-65" transform="translate(547.212891 0)"/>
     <use xlink:href="#DejaVuSans-63" transform="translate(608.736328 0)"/>
     <use xlink:href="#DejaVuSans-61" transform="translate(663.716797 0)"/>
     <use xlink:href="#DejaVuSans-6c" transform="translate(724.996094 0)"/>
     <use xlink:href="#DejaVuSans-6c" transform="translate(752.779297 0)"/>
     <use xlink:href="#DejaVuSans-20" transform="translate(780.5625 0)"/>
     <use xlink:href="#DejaVuSans-28" transform="translate(812.349609 0)"/>
     <use xlink:href="#DejaVuSans-50" transform="translate(851.363281 0)"/>
     <use xlink:href="#DejaVuSans-52" transform="translate(911.666016 0)"/>
     <use xlink:href="#DejaVuSans-29" transform="translate(981.148438 0)"/>
     <use xlink:href="#DejaVuSans-20" transform="translate(1020.162109 0)"/>
     <use xlink:href="#DejaVuSans-43" transform="translate(1051.949219 0)"/>
     <use xlink:href="#DejaVuSans-75" transform="translate(1121.773438 0)"/>
     <use xlink:href="#DejaVuSans-72" transform="translate(1185.152344 0)"/>
     <use xlink:href="#DejaVuSans-76" transform="translate(1226.265625 0)"/>
     <use xlink:href="#DejaVuSans-65" transform="translate(1285.445312 0)"/>
     <use xlink:href="#DejaVuSans-20" transform="translate(1346.96875 0)"/>
     <use xlink:href="#DejaVuSans-43" transform="translate(1378.755859 0)"/>
     <use xlink:href="#DejaVuSans-6f" transform="translate(1448.580078 0)"/>
     <use xlink:href="#DejaVuSans-6d" transform="translate(1509.761719 0)"/>
     <use xlink:href="#DejaVuSans-70" transform="translate(1607.173828 0)"/>
     <use xlink:href="#DejaVuSans-61" transform="translate(1670.650391 0)"/>
     <use xlink:href="#DejaVuSans-72" transform="translate(1731.929688 0)"/>
     <use xlink:href="#DejaVuSans-69" transform="translate(1773.042969 0)"/>
     <use xlink:href="#DejaVuSans-73" transform="translate(1800.826172 0)"/>
     <use xlink:href="#DejaVuSans-6f" transform="translate(1852.925781 0)"/>
     <use xlink:href="#DejaVuSans-6e" transform="translate(1914.107422 0)"/>
    </g>
   </g>
   <g id="legend_1">
    <g id="patch_7">
     <path d="M 59.11 344.94 
L 193.830781 344.94 
Q 196.030781 344.94 196.030781 342.74 
L 196.030781 279.25625 
Q 196.030781 277.05625 193.830781 277.05625 
L 59.11 277.05625 
Q 56.91 277.05625 56.91 279.25625 
L 56.91 342.74 
Q 56.91 344.94 59.11 344.94 
z
" style="fill: #ffffff; opacity: 0.8; stroke: #000000; stroke-linejoin: miter"/>
    </g>
    <g id="line2d_29">
     <path d="M 61.31 285.964531 
L 72.31 285.964531 
L 83.31 285.964531 
" style="fill: none; stroke: #e63946; stroke-width: 2; stroke-linecap: square"/>
    </g>
    <g id="text_16">
     <!-- GE-MRGNN (Ours) -->
     <g transform="translate(92.11 289.814531) scale(0.11 -0.11)">
      <defs>
       <path id="DejaVuSans-47" d="M 3809 666 
L 3809 1919 
L 2778 1919 
L 2778 2438 
L 4434 2438 
L 4434 434 
Q 4069 175 3628 42 
Q 3188 -91 2688 -91 
Q 1594 -91 976 548 
Q 359 1188 359 2328 
Q 359 3472 976 4111 
Q 1594 4750 2688 4750 
Q 3144 4750 3555 4637 
Q 3966 4525 4313 4306 
L 4313 3634 
Q 3963 3931 3569 4081 
Q 3175 4231 2741 4231 
Q 1884 4231 1454 3753 
Q 1025 3275 1025 2328 
Q 1025 1384 1454 906 
Q 1884 428 2741 428 
Q 3075 428 3337 486 
Q 3600 544 3809 666 
z
" transform="scale(0.015625)"/>
       <path id="DejaVuSans-45" d="M 628 4666 
L 3578 4666 
L 3578 4134 
L 1259 4134 
L 1259 2753 
L 3481 2753 
L 3481 2222 
L 1259 2222 
L 1259 531 
L 3634 531 
L 3634 0 
L 628 0 
L 628 4666 
z
" transform="scale(0.015625)"/>
       <path id="DejaVuSans-4d" d="M 628 4666 
L 1569 4666 
L 2759 1491 
L 3956 4666 
L 4897 4666 
L 4897 0 
L 4281 0 
L 4281 4097 
L 3078 897 
L 2444 897 
L 1241 4097 
L 1241 0 
L 628 0 
L 628 4666 
z
" transform="scale(0.015625)"/>
       <path id="DejaVuSans-4e" d="M 628 4666 
L 1478 4666 
L 3547 763 
L 3547 4666 
L 4159 4666 
L 4159 0 
L 3309 0 
L 1241 3903 
L 1241 0 
L 628 0 
L 628 4666 
z
" transform="scale(0.015625)"/>
       <path id="DejaVuSans-4f" d="M 2522 4238 
Q 1834 4238 1429 3725 
Q 1025 3213 1025 2328 
Q 1025 1447 1429 934 
Q 1834 422 2522 422 
Q 3209 422 3611 934 
Q 4013 1447 4013 2328 
Q 4013 3213 3611 3725 
Q 3209 4238 2522 4238 
z
M 2522 4750 
Q 3503 4750 4090 4092 
Q 4678 3434 4678 2328 
Q 4678 1225 4090 567 
Q 3503 -91 2522 -91 
Q 1538 -91 948 565 
Q 359 1222 359 2328 
Q 359 3434 948 4092 
Q 1538 4750 2522 4750 
z
" transform="scale(0.015625)"/>
      </defs>
      <use xlink:href="#DejaVuSans-47"/>
      <use xlink:href="#DejaVuSans-45" transform="translate(77.490234 0)"/>
      <use xlink:href="#DejaVuSans-2d" transform="translate(140.673828 0)"/>
      <use xlink:href="#DejaVuSans-4d" transform="translate(176.757812 0)"/>
      <use xlink:href="#DejaVuSans-52" transform="translate(263.037109 0)"/>
      <use xlink:href="#DejaVuSans-47" transform="translate(332.519531 0)"/>
      <use xlink:href="#DejaVuSans-4e" transform="translate(410.009766 0)"/>
      <use xlink:href="#DejaVuSans-4e" transform="translate(484.814453 0)"/>
      <use xlink:href="#DejaVuSans-20" transform="translate(559.619141 0)"/>
      <use xlink:href="#DejaVuSans-28" transform="translate(591.40625 0)"/>
      <use xlink:href="#DejaVuSans-4f" transform="translate(630.419922 0)"/>
      <use xlink:href="#DejaVuSans-75" transform="translate(709.130859 0)"/>
      <use xlink:href="#DejaVuSans-72" transform="translate(772.509766 0)"/>
      <use xlink:href="#DejaVuSans-73" transform="translate(813.623047 0)"/>
      <use xlink:href="#DejaVuSans-29" transform="translate(865.722656 0)"/>
     </g>
    </g>
    <g id="line2d_30">
     <path d="M 61.31 302.110469 
L 72.31 302.110469 
L 83.31 302.110469 
" style="fill: none; stroke-dasharray: 7.4,3.2; stroke-dashoffset: 0; stroke: #457b9d; stroke-width: 2"/>
    </g>
    <g id="text_17">
     <!-- R-GCN -->
     <g transform="translate(92.11 305.960469) scale(0.11 -0.11)">
      <use xlink:href="#DejaVuSans-52"/>
      <use xlink:href="#DejaVuSans-2d" transform="translate(65.482422 0)"/>
      <use xlink:href="#DejaVuSans-47" transform="translate(105.191406 0)"/>
      <use xlink:href="#DejaVuSans-43" transform="translate(182.681641 0)"/>
      <use xlink:href="#DejaVuSans-4e" transform="translate(252.505859 0)"/>
     </g>
    </g>
    <g id="line2d_31">
     <path d="M 61.31 318.256406 
L 72.31 318.256406 
L 83.31 318.256406 
" style="fill: none; stroke-dasharray: 12.8,3.2,2,3.2; stroke-dashoffset: 0; stroke: #2a9d8f; stroke-width: 2"/>
    </g>
    <g id="text_18">
     <!-- HAN -->
     <g transform="translate(92.11 322.106406) scale(0.11 -0.11)">
      <defs>
       <path id="DejaVuSans-48" d="M 628 4666 
L 1259 4666 
L 1259 2753 
L 3553 2753 
L 3553 4666 
L 4184 4666 
L 4184 0 
L 3553 0 
L 3553 2222 
L 1259 2222 
L 1259 0 
L 628 0 
L 628 4666 
z
" transform="scale(0.015625)"/>
       <path id="DejaVuSans-41" d="M 2188 4044 
L 1331 1722 
L 3047 1722 
L 2188 4044 
z
M 1831 4666 
L 2547 4666 
L 4325 0 
L 3669 0 
L 3244 1197 
L 1141 1197 
L 716 0 
L 50 0 
L 1831 4666 
z
" transform="scale(0.015625)"/>
      </defs>
      <use xlink:href="#DejaVuSans-48"/>
      <use xlink:href="#DejaVuSans-41" transform="translate(75.195312 0)"/>
      <use xlink:href="#DejaVuSans-4e" transform="translate(143.603516 0)"/>
     </g>
    </g>
    <g id="line2d_32">
     <path d="M 61.31 334.402344 
L 72.31 334.402344 
L 83.31 334.402344 
" style="fill: none; stroke-dasharray: 2,3.3; stroke-dashoffset: 0; stroke: #f4a261; stroke-width: 2"/>
    </g>
    <g id="text_19">
     <!-- GCN -->
     <g transform="translate(92.11 338.252344) scale(0.11 -0.11)">
      <use xlink:href="#DejaVuSans-47"/>
      <use xlink:href="#DejaVuSans-43" transform="translate(77.490234 0)"/>
      <use xlink:href="#DejaVuSans-4e" transform="translate(147.314453 0)"/>
     </g>
    </g>
   </g>
  </g>
 </g>
 <defs>
  <clipPath id="pd70a967b28">
   <rect x="51.41" y="29.76" width="431.68" height="320.68"/>
  </clipPath>
 </defs>
</svg>
