<svg xmlns="http://www.w3.org/2000/svg" width="640" height="420">
<text x="320.00" y="24" text-anchor="middle" font-size="16" fill="#222">ROC Curve</text>
<line x1="40" y1="380" x2="600" y2="380" stroke="#333"/><line x1="40" y1="380" x2="40" y2="40" stroke="#333"/>
<polyline fill="none" stroke="#2c7be5" stroke-width="2" points="600.00,40.00 430.87,40.00 397.99,40.67 377.53,41.34 359.27,41.34 347.95,42.01 335.52,42.01 326.03,44.02 313.97,44.69 305.21,45.35 296.80,45.35 289.13,46.02 281.83,46.02 271.23,46.02 266.48,47.36 264.29,47.36 258.81,48.03 253.33,48.70 248.22,48.70 243.47,48.70 237.63,49.37 228.49,49.37 224.84,50.71 218.63,51.38 212.42,52.05 209.13,53.39 205.11,54.06 199.63,54.72 195.98,56.73 192.33,57.40 187.21,57.40 180.64,60.08 176.99,62.09 174.43,64.09 171.51,66.10 169.32,66.77 165.30,66.77 160.18,68.11 159.45,68.11 156.53,68.78 155.07,68.78 152.88,69.45 149.95,72.13 146.67,77.48 144.11,78.15 141.55,78.15 140.09,78.82 138.63,80.16 136.80,80.83 133.88,82.17 132.79,82.17 131.69,83.50 129.50,85.51 128.40,86.18 126.21,88.86 123.29,94.21 120.37,97.56 117.81,100.91 115.25,103.58 113.42,107.60 110.50,110.94 108.68,115.63 106.85,122.99 102.10,126.34 99.91,135.04 96.62,138.39 94.43,141.73 92.97,143.74 90.41,144.41 86.76,149.76 82.01,151.77 79.45,153.78 76.53,157.80 75.43,163.15 73.24,166.50 72.15,169.17 69.59,174.53 67.76,179.21 65.57,185.91 63.74,193.27 61.92,198.62 61.19,204.65 59.36,207.99 57.53,212.68 55.71,216.02 54.61,222.72 52.79,229.41 52.05,232.09 50.96,238.11 49.13,244.13 46.58,248.82 45.48,255.51 44.02,262.87 42.92,268.23 42.56,278.27 42.19,287.64 41.46,299.02 41.46,311.06 40.37,323.11 40.37,337.83 40.00,380.00"/>
<text x="320.00" y="412" text-anchor="middle" font-size="12" fill="#555">X</text>
<text x="12" y="210.00" text-anchor="middle" font-size="12" fill="#555" transform="rotate(-90 12,210.00)">Y</text>
</svg>