<?xml version="1.0" encoding="utf-8" standalone="no"?>
<!DOCTYPE svg PUBLIC "-//W3C//DTD SVG 1.1//EN"
  "http://www.w3.org/Graphics/SVG/1.1/DTD/svg11.dtd">
<svg xmlns:xlink="http://www.w3.org/1999/xlink" width="504pt" height="396pt" viewBox="0 0 504 396" xmlns="http://www.w3.org/2000/svg" version="1.1">
 <metadata>
  <rdf:RDF xmlns:dc="http://purl.org/dc/elements/1.1/" xmlns:cc="http://creativecommons.org/ns#" xmlns:rdf="http://www.w3.org/1999/02/22-rdf-syntax-ns#">
   <cc:Work>
    <dc:type rdf:resource="http://purl.org/dc/dcmitype/StillImage"/>
    <dc:date>2026-04-24T13:35:22.214071</dc:date>
    <dc:format>image/svg+xml</dc:format>
    <dc:creator>
     <cc:Agent>
      <dc:title>Matplotlib v3.10.9, https://matplotlib.org/</dc:title>
     </cc:Agent>
    </dc:creator>
   </cc:Work>
  </rdf:RDF>
 </metadata>
 <defs>
  <style type="text/css">*{stroke-linejoin: round; stroke-linecap: butt}</style>
 </defs>
 <g id="figure_1">
  <g id="patch_1">
   <path d="M 0 396 
L 504 396 
L 504 0 
L 0 0 
z
" style="fill: #ffffff"/>
  </g>
  <g id="axes_1">
   <g id="patch_2">
    <path d="M 51.41 350.44 
L 483.09 350.44 
L 483.09 29.76 
L 51.41 29.76 
z
" style="fill: #ffffff"/>
   </g>
   <g id="matplotlib.axis_1">
    <g id="xtick_1">
     <g id="line2d_1">
      <path d="M 51.41 350.44 
L 51.41 29.76 
" clip-path="url(#p1177510fef)" style="fill: none; stroke-dasharray: 2.96,1.28; stroke-dashoffset: 0; stroke: #b0b0b0; stroke-opacity: 0.6; stroke-width: 0.8"/>
     </g>
     <g id="line2d_2">
      <defs>
       <path id="m5b84535e73" d="M 0 0 
L 0 3.5 
" style="stroke: #000000; stroke-width: 0.8"/>
      </defs>
      <g>
       <use xlink:href="#m5b84535e73" x="51.41" y="350.44" style="stroke: #000000; stroke-width: 0.8"/>
      </g>
     </g>
     <g id="text_1">
      <!-- 0.0 -->
      <g transform="translate(43.458438 365.038437) scale(0.1 -0.1)">
       <defs>
        <path id="DejaVuSans-30" d="M 2034 4250 
Q 1547 4250 1301 3770 
Q 1056 3291 1056 2328 
Q 1056 1369 1301 889 
Q 1547 409 2034 409 
Q 2525 409 2770 889 
Q 3016 1369 3016 2328 
Q 3016 3291 2770 3770 
Q 2525 4250 2034 4250 
z
M 2034 4750 
Q 2819 4750 3233 4129 
Q 3647 3509 3647 2328 
Q 3647 1150 3233 529 
Q 2819 -91 2034 -91 
Q 1250 -91 836 529 
Q 422 1150 422 2328 
Q 422 3509 836 4129 
Q 1250 4750 2034 4750 
z
" transform="scale(0.015625)"/>
        <path id="DejaVuSans-2e" d="M 684 794 
L 1344 794 
L 1344 0 
L 684 0 
L 684 794 
z
" transform="scale(0.015625)"/>
       </defs>
       <use xlink:href="#DejaVuSans-30"/>
       <use xlink:href="#DejaVuSans-2e" transform="translate(63.623047 0)"/>
       <use xlink:href="#DejaVuSans-30" transform="translate(95.410156 0)"/>
      </g>
     </g>
    </g>
    <g id="xtick_2">
     <g id="line2d_3">
      <path d="M 137.746 350.44 
L 137.746 29.76 
" clip-path="url(#p1177510fef)" style="fill: none; stroke-dasharray: 2.96,1.28; stroke-dashoffset: 0; stroke: #b0b0b0; stroke-opacity: 0.6; stroke-width: 0.8"/>
     </g>
     <g id="line2d_4">
      <g>
       <use xlink:href="#m5b84535e73" x="137.746" y="350.44" style="stroke: #000000; stroke-width: 0.8"/>
      </g>
     </g>
     <g id="text_2">
      <!-- 0.2 -->
      <g transform="translate(129.794438 365.038437) scale(0.1 -0.1)">
       <defs>
        <path id="DejaVuSans-32" d="M 1228 531 
L 3431 531 
L 3431 0 
L 469 0 
L 469 531 
Q 828 903 1448 1529 
Q 2069 2156 2228 2338 
Q 2531 2678 2651 2914 
Q 2772 3150 2772 3378 
Q 2772 3750 2511 3984 
Q 2250 4219 1831 4219 
Q 1534 4219 1204 4116 
Q 875 4013 500 3803 
L 500 4441 
Q 881 4594 1212 4672 
Q 1544 4750 1819 4750 
Q 2544 4750 2975 4387 
Q 3406 4025 3406 3419 
Q 3406 3131 3298 2873 
Q 3191 2616 2906 2266 
Q 2828 2175 2409 1742 
Q 1991 1309 1228 531 
z
" transform="scale(0.015625)"/>
       </defs>
       <use xlink:href="#DejaVuSans-30"/>
       <use xlink:href="#DejaVuSans-2e" transform="translate(63.623047 0)"/>
       <use xlink:href="#DejaVuSans-32" transform="translate(95.410156 0)"/>
      </g>
     </g>
    </g>
    <g id="xtick_3">
     <g id="line2d_5">
      <path d="M 224.082 350.44 
L 224.082 29.76 
" clip-path="url(#p1177510fef)" style="fill: none; stroke-dasharray: 2.96,1.28; stroke-dashoffset: 0; stroke: #b0b0b0; stroke-opacity: 0.6; stroke-width: 0.8"/>
     </g>
     <g id="line2d_6">
      <g>
       <use xlink:href="#m5b84535e73" x="224.082" y="350.44" style="stroke: #000000; stroke-width: 0.8"/>
      </g>
     </g>
     <g id="text_3">
      <!-- 0.4 -->
      <g transform="translate(216.130438 365.038437) scale(0.1 -0.1)">
       <defs>
        <path id="DejaVuSans-34" d="M 2419 4116 
L 825 1625 
L 2419 1625 
L 2419 4116 
z
M 2253 4666 
L 3047 4666 
L 3047 1625 
L 3713 1625 
L 3713 1100 
L 3047 1100 
L 3047 0 
L 2419 0 
L 2419 1100 
L 313 1100 
L 313 1709 
L 2253 4666 
z
" transform="scale(0.015625)"/>
       </defs>
       <use xlink:href="#DejaVuSans-30"/>
       <use xlink:href="#DejaVuSans-2e" transform="translate(63.623047 0)"/>
       <use xlink:href="#DejaVuSans-34" transform="translate(95.410156 0)"/>
      </g>
     </g>
    </g>
    <g id="xtick_4">
     <g id="line2d_7">
      <path d="M 310.418 350.44 
L 310.418 29.76 
" clip-path="url(#p1177510fef)" style="fill: none; stroke-dasharray: 2.96,1.28; stroke-dashoffset: 0; stroke: #b0b0b0; stroke-opacity: 0.6; stroke-width: 0.8"/>
     </g>
     <g id="line2d_8">
      <g>
       <use xlink:href="#m5b84535e73" x="310.418" y="350.44" style="stroke: #000000; stroke-width: 0.8"/>
      </g>
     </g>
     <g id="text_4">
      <!-- 0.6 -->
      <g transform="translate(302.466438 365.038437) scale(0.1 -0.1)">
       <defs>
        <path id="DejaVuSans-36" d="M 2113 2584 
Q 1688 2584 1439 2293 
Q 1191 2003 1191 1497 
Q 1191 994 1439 701 
Q 1688 409 2113 409 
Q 2538 409 2786 701 
Q 3034 994 3034 1497 
Q 3034 2003 2786 2293 
Q 2538 2584 2113 2584 
z
M 3366 4563 
L 3366 3988 
Q 3128 4100 2886 4159 
Q 2644 4219 2406 4219 
Q 1781 4219 1451 3797 
Q 1122 3375 1075 2522 
Q 1259 2794 1537 2939 
Q 1816 3084 2150 3084 
Q 2853 3084 3261 2657 
Q 3669 2231 3669 1497 
Q 3669 778 3244 343 
Q 2819 -91 2113 -91 
Q 1303 -91 875 529 
Q 447 1150 447 2328 
Q 447 3434 972 4092 
Q 1497 4750 2381 4750 
Q 2619 4750 2861 4703 
Q 3103 4656 3366 4563 
z
" transform="scale(0.015625)"/>
       </defs>
       <use xlink:href="#DejaVuSans-30"/>
       <use xlink:href="#DejaVuSans-2e" transform="translate(63.623047 0)"/>
       <use xlink:href="#DejaVuSans-36" transform="translate(95.410156 0)"/>
      </g>
     </g>
    </g>
    <g id="xtick_5">
     <g id="line2d_9">
      <path d="M 396.754 350.44 
L 396.754 29.76 
" clip-path="url(#p1177510fef)" style="fill: none; stroke-dasharray: 2.96,1.28; stroke-dashoffset: 0; stroke: #b0b0b0; stroke-opacity: 0.6; stroke-width: 0.8"/>
     </g>
     <g id="line2d_10">
      <g>
       <use xlink:href="#m5b84535e73" x="396.754" y="350.44" style="stroke: #000000; stroke-width: 0.8"/>
      </g>
     </g>
     <g id="text_5">
      <!-- 0.8 -->
      <g transform="translate(388.802438 365.038437) scale(0.1 -0.1)">
       <defs>
        <path id="DejaVuSans-38" d="M 2034 2216 
Q 1584 2216 1326 1975 
Q 1069 1734 1069 1313 
Q 1069 891 1326 650 
Q 1584 409 2034 409 
Q 2484 409 2743 651 
Q 3003 894 3003 1313 
Q 3003 1734 2745 1975 
Q 2488 2216 2034 2216 
z
M 1403 2484 
Q 997 2584 770 2862 
Q 544 3141 544 3541 
Q 544 4100 942 4425 
Q 1341 4750 2034 4750 
Q 2731 4750 3128 4425 
Q 3525 4100 3525 3541 
Q 3525 3141 3298 2862 
Q 3072 2584 2669 2484 
Q 3125 2378 3379 2068 
Q 3634 1759 3634 1313 
Q 3634 634 3220 271 
Q 2806 -91 2034 -91 
Q 1263 -91 848 271 
Q 434 634 434 1313 
Q 434 1759 690 2068 
Q 947 2378 1403 2484 
z
M 1172 3481 
Q 1172 3119 1398 2916 
Q 1625 2713 2034 2713 
Q 2441 2713 2670 2916 
Q 2900 3119 2900 3481 
Q 2900 3844 2670 4047 
Q 2441 4250 2034 4250 
Q 1625 4250 1398 4047 
Q 1172 3844 1172 3481 
z
" transform="scale(0.015625)"/>
       </defs>
       <use xlink:href="#DejaVuSans-30"/>
       <use xlink:href="#DejaVuSans-2e" transform="translate(63.623047 0)"/>
       <use xlink:href="#DejaVuSans-38" transform="translate(95.410156 0)"/>
      </g>
     </g>
    </g>
    <g id="xtick_6">
     <g id="line2d_11">
      <path d="M 483.09 350.44 
L 483.09 29.76 
" clip-path="url(#p1177510fef)" style="fill: none; stroke-dasharray: 2.96,1.28; stroke-dashoffset: 0; stroke: #b0b0b0; stroke-opacity: 0.6; stroke-width: 0.8"/>
     </g>
     <g id="line2d_12">
      <g>
       <use xlink:href="#m5b84535e73" x="483.09" y="350.44" style="stroke: #000000; stroke-width: 0.8"/>
      </g>
     </g>
     <g id="text_6">
      <!-- 1.0 -->
      <g transform="translate(475.138438 365.038437) scale(0.1 -0.1)">
       <defs>
        <path id="DejaVuSans-31" d="M 794 531 
L 1825 531 
L 1825 4091 
L 703 3866 
L 703 4441 
L 1819 4666 
L 2450 4666 
L 2450 531 
L 3481 531 
L 3481 0 
L 794 0 
L 794 531 
z
" transform="scale(0.015625)"/>
       </defs>
       <use xlink:href="#DejaVuSans-31"/>
       <use xlink:href="#DejaVuSans-2e" transform="translate(63.623047 0)"/>
       <use xlink:href="#DejaVuSans-30" transform="translate(95.410156 0)"/>
      </g>
     </g>
    </g>
    <g id="text_7">
     <!-- False Positive Rate (FPR) -->
     <g transform="translate(193.66375 380.23625) scale(0.12 -0.12)">
      <defs>
       <path id="DejaVuSans-46" d="M 628 4666 
L 3309 4666 
L 3309 4134 
L 1259 4134 
L 1259 2759 
L 3109 2759 
L 3109 2228 
L 1259 2228 
L 1259 0 
L 628 0 
L 628 4666 
z
" transform="scale(0.015625)"/>
       <path id="DejaVuSans-61" d="M 2194 1759 
Q 1497 1759 1228 1600 
Q 959 1441 959 1056 
Q 959 750 1161 570 
Q 1363 391 1709 391 
Q 2188 391 2477 730 
Q 2766 1069 2766 1631 
L 2766 1759 
L 2194 1759 
z
M 3341 1997 
L 3341 0 
L 2766 0 
L 2766 531 
Q 2569 213 2275 61 
Q 1981 -91 1556 -91 
Q 1019 -91 701 211 
Q 384 513 384 1019 
Q 384 1609 779 1909 
Q 1175 2209 1959 2209 
L 2766 2209 
L 2766 2266 
Q 2766 2663 2505 2880 
Q 2244 3097 1772 3097 
Q 1472 3097 1187 3025 
Q 903 2953 641 2809 
L 641 3341 
Q 956 3463 1253 3523 
Q 1550 3584 1831 3584 
Q 2591 3584 2966 3190 
Q 3341 2797 3341 1997 
z
" transform="scale(0.015625)"/>
       <path id="DejaVuSans-6c" d="M 603 4863 
L 1178 4863 
L 1178 0 
L 603 0 
L 603 4863 
z
" transform="scale(0.015625)"/>
       <path id="DejaVuSans-73" d="M 2834 3397 
L 2834 2853 
Q 2591 2978 2328 3040 
Q 2066 3103 1784 3103 
Q 1356 3103 1142 2972 
Q 928 2841 928 2578 
Q 928 2378 1081 2264 
Q 1234 2150 1697 2047 
L 1894 2003 
Q 2506 1872 2764 1633 
Q 3022 1394 3022 966 
Q 3022 478 2636 193 
Q 2250 -91 1575 -91 
Q 1294 -91 989 -36 
Q 684 19 347 128 
L 347 722 
Q 666 556 975 473 
Q 1284 391 1588 391 
Q 1994 391 2212 530 
Q 2431 669 2431 922 
Q 2431 1156 2273 1281 
Q 2116 1406 1581 1522 
L 1381 1569 
Q 847 1681 609 1914 
Q 372 2147 372 2553 
Q 372 3047 722 3315 
Q 1072 3584 1716 3584 
Q 2034 3584 2315 3537 
Q 2597 3491 2834 3397 
z
" transform="scale(0.015625)"/>
       <path id="DejaVuSans-65" d="M 3597 1894 
L 3597 1613 
L 953 1613 
Q 991 1019 1311 708 
Q 1631 397 2203 397 
Q 2534 397 2845 478 
Q 3156 559 3463 722 
L 3463 178 
Q 3153 47 2828 -22 
Q 2503 -91 2169 -91 
Q 1331 -91 842 396 
Q 353 884 353 1716 
Q 353 2575 817 3079 
Q 1281 3584 2069 3584 
Q 2775 3584 3186 3129 
Q 3597 2675 3597 1894 
z
M 3022 2063 
Q 3016 2534 2758 2815 
Q 2500 3097 2075 3097 
Q 1594 3097 1305 2825 
Q 1016 2553 972 2059 
L 3022 2063 
z
" transform="scale(0.015625)"/>
       <path id="DejaVuSans-20" transform="scale(0.015625)"/>
       <path id="DejaVuSans-50" d="M 1259 4147 
L 1259 2394 
L 2053 2394 
Q 2494 2394 2734 2622 
Q 2975 2850 2975 3272 
Q 2975 3691 2734 3919 
Q 2494 4147 2053 4147 
L 1259 4147 
z
M 628 4666 
L 2053 4666 
Q 2838 4666 3239 4311 
Q 3641 3956 3641 3272 
Q 3641 2581 3239 2228 
Q 2838 1875 2053 1875 
L 1259 1875 
L 1259 0 
L 628 0 
L 628 4666 
z
" transform="scale(0.015625)"/>
       <path id="DejaVuSans-6f" d="M 1959 3097 
Q 1497 3097 1228 2736 
Q 959 2375 959 1747 
Q 959 1119 1226 758 
Q 1494 397 1959 397 
Q 2419 397 2687 759 
Q 2956 1122 2956 1747 
Q 2956 2369 2687 2733 
Q 2419 3097 1959 3097 
z
M 1959 3584 
Q 2709 3584 3137 3096 
Q 3566 2609 3566 1747 
Q 3566 888 3137 398 
Q 2709 -91 1959 -91 
Q 1206 -91 779 398 
Q 353 888 353 1747 
Q 353 2609 779 3096 
Q 1206 3584 1959 3584 
z
" transform="scale(0.015625)"/>
       <path id="DejaVuSans-69" d="M 603 3500 
L 1178 3500 
L 1178 0 
L 603 0 
L 603 3500 
z
M 603 4863 
L 1178 4863 
L 1178 4134 
L 603 4134 
L 603 4863 
z
" transform="scale(0.015625)"/>
       <path id="DejaVuSans-74" d="M 1172 4494 
L 1172 3500 
L 2356 3500 
L 2356 3053 
L 1172 3053 
L 1172 1153 
Q 1172 725 1289 603 
Q 1406 481 1766 481 
L 2356 481 
L 2356 0 
L 1766 0 
Q 1100 0 847 248 
Q 594 497 594 1153 
L 594 3053 
L 172 3053 
L 172 3500 
L 594 3500 
L 594 4494 
L 1172 4494 
z
" transform="scale(0.015625)"/>
       <path id="DejaVuSans-76" d="M 191 3500 
L 800 3500 
L 1894 563 
L 2988 3500 
L 3597 3500 
L 2284 0 
L 1503 0 
L 191 3500 
z
" transform="scale(0.015625)"/>
       <path id="DejaVuSans-52" d="M 2841 2188 
Q 3044 2119 3236 1894 
Q 3428 1669 3622 1275 
L 4263 0 
L 3584 0 
L 2988 1197 
Q 2756 1666 2539 1819 
Q 2322 1972 1947 1972 
L 1259 1972 
L 1259 0 
L 628 0 
L 628 4666 
L 2053 4666 
Q 2853 4666 3247 4331 
Q 3641 3997 3641 3322 
Q 3641 2881 3436 2590 
Q 3231 2300 2841 2188 
z
M 1259 4147 
L 1259 2491 
L 2053 2491 
Q 2509 2491 2742 2702 
Q 2975 2913 2975 3322 
Q 2975 3731 2742 3939 
Q 2509 4147 2053 4147 
L 1259 4147 
z
" transform="scale(0.015625)"/>
       <path id="DejaVuSans-28" d="M 1984 4856 
Q 1566 4138 1362 3434 
Q 1159 2731 1159 2009 
Q 1159 1288 1364 580 
Q 1569 -128 1984 -844 
L 1484 -844 
Q 1016 -109 783 600 
Q 550 1309 550 2009 
Q 550 2706 781 3412 
Q 1013 4119 1484 4856 
L 1984 4856 
z
" transform="scale(0.015625)"/>
       <path id="DejaVuSans-29" d="M 513 4856 
L 1013 4856 
Q 1481 4119 1714 3412 
Q 1947 2706 1947 2009 
Q 1947 1309 1714 600 
Q 1481 -109 1013 -844 
L 513 -844 
Q 928 -128 1133 580 
Q 1338 1288 1338 2009 
Q 1338 2731 1133 3434 
Q 928 4138 513 4856 
z
" transform="scale(0.015625)"/>
      </defs>
      <use xlink:href="#DejaVuSans-46"/>
      <use xlink:href="#DejaVuSans-61" transform="translate(48.394531 0)"/>
      <use xlink:href="#DejaVuSans-6c" transform="translate(109.673828 0)"/>
      <use xlink:href="#DejaVuSans-73" transform="translate(137.457031 0)"/>
      <use xlink:href="#DejaVuSans-65" transform="translate(189.556641 0)"/>
      <use xlink:href="#DejaVuSans-20" transform="translate(251.080078 0)"/>
      <use xlink:href="#DejaVuSans-50" transform="translate(282.867188 0)"/>
      <use xlink:href="#DejaVuSans-6f" transform="translate(339.544922 0)"/>
      <use xlink:href="#DejaVuSans-73" transform="translate(400.726562 0)"/>
      <use xlink:href="#DejaVuSans-69" transform="translate(452.826172 0)"/>
      <use xlink:href="#DejaVuSans-74" transform="translate(480.609375 0)"/>
      <use xlink:href="#DejaVuSans-69" transform="translate(519.818359 0)"/>
      <use xlink:href="#DejaVuSans-76" transform="translate(547.601562 0)"/>
      <use xlink:href="#DejaVuSans-65" transform="translate(606.78125 0)"/>
      <use xlink:href="#DejaVuSans-20" transform="translate(668.304688 0)"/>
      <use xlink:href="#DejaVuSans-52" transform="translate(700.091797 0)"/>
      <use xlink:href="#DejaVuSans-61" transform="translate(767.324219 0)"/>
      <use xlink:href="#DejaVuSans-74" transform="translate(828.603516 0)"/>
      <use xlink:href="#DejaVuSans-65" transform="translate(867.8125 0)"/>
      <use xlink:href="#DejaVuSans-20" transform="translate(929.335938 0)"/>
      <use xlink:href="#DejaVuSans-28" transform="translate(961.123047 0)"/>
      <use xlink:href="#DejaVuSans-46" transform="translate(1000.136719 0)"/>
      <use xlink:href="#DejaVuSans-50" transform="translate(1057.65625 0)"/>
      <use xlink:href="#DejaVuSans-52" transform="translate(1117.958984 0)"/>
      <use xlink:href="#DejaVuSans-29" transform="translate(1187.441406 0)"/>
     </g>
    </g>
   </g>
   <g id="matplotlib.axis_2">
    <g id="ytick_1">
     <g id="line2d_13">
      <path d="M 51.41 350.44 
L 483.09 350.44 
" clip-path="url(#p1177510fef)" style="fill: none; stroke-dasharray: 2.96,1.28; stroke-dashoffset: 0; stroke: #b0b0b0; stroke-opacity: 0.6; stroke-width: 0.8"/>
     </g>
     <g id="line2d_14">
      <defs>
       <path id="m589f0b25e6" d="M 0 0 
L -3.5 0 
" style="stroke: #000000; stroke-width: 0.8"/>
      </defs>
      <g>
       <use xlink:href="#m589f0b25e6" x="51.41" y="350.44" style="stroke: #000000; stroke-width: 0.8"/>
      </g>
     </g>
     <g id="text_8">
      <!-- 0.0 -->
      <g transform="translate(28.506875 354.239219) scale(0.1 -0.1)">
       <use xlink:href="#DejaVuSans-30"/>
       <use xlink:href="#DejaVuSans-2e" transform="translate(63.623047 0)"/>
       <use xlink:href="#DejaVuSans-30" transform="translate(95.410156 0)"/>
      </g>
     </g>
    </g>
    <g id="ytick_2">
     <g id="line2d_15">
      <path d="M 51.41 289.358095 
L 483.09 289.358095 
" clip-path="url(#p1177510fef)" style="fill: none; stroke-dasharray: 2.96,1.28; stroke-dashoffset: 0; stroke: #b0b0b0; stroke-opacity: 0.6; stroke-width: 0.8"/>
     </g>
     <g id="line2d_16">
      <g>
       <use xlink:href="#m589f0b25e6" x="51.41" y="289.358095" style="stroke: #000000; stroke-width: 0.8"/>
      </g>
     </g>
     <g id="text_9">
      <!-- 0.2 -->
      <g transform="translate(28.506875 293.157314) scale(0.1 -0.1)">
       <use xlink:href="#DejaVuSans-30"/>
       <use xlink:href="#DejaVuSans-2e" transform="translate(63.623047 0)"/>
       <use xlink:href="#DejaVuSans-32" transform="translate(95.410156 0)"/>
      </g>
     </g>
    </g>
    <g id="ytick_3">
     <g id="line2d_17">
      <path d="M 51.41 228.27619 
L 483.09 228.27619 
" clip-path="url(#p1177510fef)" style="fill: none; stroke-dasharray: 2.96,1.28; stroke-dashoffset: 0; stroke: #b0b0b0; stroke-opacity: 0.6; stroke-width: 0.8"/>
     </g>
     <g id="line2d_18">
      <g>
       <use xlink:href="#m589f0b25e6" x="51.41" y="228.27619" style="stroke: #000000; stroke-width: 0.8"/>
      </g>
     </g>
     <g id="text_10">
      <!-- 0.4 -->
      <g transform="translate(28.506875 232.075409) scale(0.1 -0.1)">
       <use xlink:href="#DejaVuSans-30"/>
       <use xlink:href="#DejaVuSans-2e" transform="translate(63.623047 0)"/>
       <use xlink:href="#DejaVuSans-34" transform="translate(95.410156 0)"/>
      </g>
     </g>
    </g>
    <g id="ytick_4">
     <g id="line2d_19">
      <path d="M 51.41 167.194286 
L 483.09 167.194286 
" clip-path="url(#p1177510fef)" style="fill: none; stroke-dasharray: 2.96,1.28; stroke-dashoffset: 0; stroke: #b0b0b0; stroke-opacity: 0.6; stroke-width: 0.8"/>
     </g>
     <g id="line2d_20">
      <g>
       <use xlink:href="#m589f0b25e6" x="51.41" y="167.194286" style="stroke: #000000; stroke-width: 0.8"/>
      </g>
     </g>
     <g id="text_11">
      <!-- 0.6 -->
      <g transform="translate(28.506875 170.993504) scale(0.1 -0.1)">
       <use xlink:href="#DejaVuSans-30"/>
       <use xlink:href="#DejaVuSans-2e" transform="translate(63.623047 0)"/>
       <use xlink:href="#DejaVuSans-36" transform="translate(95.410156 0)"/>
      </g>
     </g>
    </g>
    <g id="ytick_5">
     <g id="line2d_21">
      <path d="M 51.41 106.112381 
L 483.09 106.112381 
" clip-path="url(#p1177510fef)" style="fill: none; stroke-dasharray: 2.96,1.28; stroke-dashoffset: 0; stroke: #b0b0b0; stroke-opacity: 0.6; stroke-width: 0.8"/>
     </g>
     <g id="line2d_22">
      <g>
       <use xlink:href="#m589f0b25e6" x="51.41" y="106.112381" style="stroke: #000000; stroke-width: 0.8"/>
      </g>
     </g>
     <g id="text_12">
      <!-- 0.8 -->
      <g transform="translate(28.506875 109.9116) scale(0.1 -0.1)">
       <use xlink:href="#DejaVuSans-30"/>
       <use xlink:href="#DejaVuSans-2e" transform="translate(63.623047 0)"/>
       <use xlink:href="#DejaVuSans-38" transform="translate(95.410156 0)"/>
      </g>
     </g>
    </g>
    <g id="ytick_6">
     <g id="line2d_23">
      <path d="M 51.41 45.030476 
L 483.09 45.030476 
" clip-path="url(#p1177510fef)" style="fill: none; stroke-dasharray: 2.96,1.28; stroke-dashoffset: 0; stroke: #b0b0b0; stroke-opacity: 0.6; stroke-width: 0.8"/>
     </g>
     <g id="line2d_24">
      <g>
       <use xlink:href="#m589f0b25e6" x="51.41" y="45.030476" style="stroke: #000000; stroke-width: 0.8"/>
      </g>
     </g>
     <g id="text_13">
      <!-- 1.0 -->
      <g transform="translate(28.506875 48.829695) scale(0.1 -0.1)">
       <use xlink:href="#DejaVuSans-31"/>
       <use xlink:href="#DejaVuSans-2e" transform="translate(63.623047 0)"/>
       <use xlink:href="#DejaVuSans-30" transform="translate(95.410156 0)"/>
      </g>
     </g>
    </g>
    <g id="text_14">
     <!-- True Positive Rate (TPR) -->
     <g transform="translate(22.01125 261.575938) rotate(-90) scale(0.12 -0.12)">
      <defs>
       <path id="DejaVuSans-54" d="M -19 4666 
L 3928 4666 
L 3928 4134 
L 2272 4134 
L 2272 0 
L 1638 0 
L 1638 4134 
L -19 4134 
L -19 4666 
z
" transform="scale(0.015625)"/>
       <path id="DejaVuSans-72" d="M 2631 2963 
Q 2534 3019 2420 3045 
Q 2306 3072 2169 3072 
Q 1681 3072 1420 2755 
Q 1159 2438 1159 1844 
L 1159 0 
L 581 0 
L 581 3500 
L 1159 3500 
L 1159 2956 
Q 1341 3275 1631 3429 
Q 1922 3584 2338 3584 
Q 2397 3584 2469 3576 
Q 2541 3569 2628 3553 
L 2631 2963 
z
" transform="scale(0.015625)"/>
       <path id="DejaVuSans-75" d="M 544 1381 
L 544 3500 
L 1119 3500 
L 1119 1403 
Q 1119 906 1312 657 
Q 1506 409 1894 409 
Q 2359 409 2629 706 
Q 2900 1003 2900 1516 
L 2900 3500 
L 3475 3500 
L 3475 0 
L 2900 0 
L 2900 538 
Q 2691 219 2414 64 
Q 2138 -91 1772 -91 
Q 1169 -91 856 284 
Q 544 659 544 1381 
z
M 1991 3584 
L 1991 3584 
z
" transform="scale(0.015625)"/>
      </defs>
      <use xlink:href="#DejaVuSans-54"/>
      <use xlink:href="#DejaVuSans-72" transform="translate(46.333984 0)"/>
      <use xlink:href="#DejaVuSans-75" transform="translate(87.447266 0)"/>
      <use xlink:href="#DejaVuSans-65" transform="translate(150.826172 0)"/>
      <use xlink:href="#DejaVuSans-20" transform="translate(212.349609 0)"/>
      <use xlink:href="#DejaVuSans-50" transform="translate(244.136719 0)"/>
      <use xlink:href="#DejaVuSans-6f" transform="translate(300.814453 0)"/>
      <use xlink:href="#DejaVuSans-73" transform="translate(361.996094 0)"/>
      <use xlink:href="#DejaVuSans-69" transform="translate(414.095703 0)"/>
      <use xlink:href="#DejaVuSans-74" transform="translate(441.878906 0)"/>
      <use xlink:href="#DejaVuSans-69" transform="translate(481.087891 0)"/>
      <use xlink:href="#DejaVuSans-76" transform="translate(508.871094 0)"/>
      <use xlink:href="#DejaVuSans-65" transform="translate(568.050781 0)"/>
      <use xlink:href="#DejaVuSans-20" transform="translate(629.574219 0)"/>
      <use xlink:href="#DejaVuSans-52" transform="translate(661.361328 0)"/>
      <use xlink:href="#DejaVuSans-61" transform="translate(728.59375 0)"/>
      <use xlink:href="#DejaVuSans-74" transform="translate(789.873047 0)"/>
      <use xlink:href="#DejaVuSans-65" transform="translate(829.082031 0)"/>
      <use xlink:href="#DejaVuSans-20" transform="translate(890.605469 0)"/>
      <use xlink:href="#DejaVuSans-28" transform="translate(922.392578 0)"/>
      <use xlink:href="#DejaVuSans-54" transform="translate(961.40625 0)"/>
      <use xlink:href="#DejaVuSans-50" transform="translate(1022.490234 0)"/>
      <use xlink:href="#DejaVuSans-52" transform="translate(1082.792969 0)"/>
      <use xlink:href="#DejaVuSans-29" transform="translate(1152.275391 0)"/>
     </g>
    </g>
   </g>
   <g id="line2d_25">
    <path d="M 51.41 350.44 
L 483.09 45.030476 
" clip-path="url(#p1177510fef)" style="fill: none; stroke-dasharray: 5.55,2.4; stroke-dashoffset: 0; stroke: #808080; stroke-width: 1.5"/>
   </g>
   <g id="line2d_26">
    <path d="M 483.09 45.030476 
L 352.713143 45.030476 
L 327.369642 45.631828 
L 311.600803 46.232873 
L 297.521128 46.232873 
L 288.791695 46.834225 
L 279.217465 46.834225 
L 271.896172 48.637668 
L 262.603828 49.239019 
L 255.845446 49.840065 
L 249.368951 49.840065 
L 243.455367 50.441417 
L 237.823669 50.441417 
L 229.657579 50.441417 
L 225.996932 51.643814 
L 224.307337 51.643814 
L 220.083348 52.24486 
L 215.859359 52.846211 
L 211.917258 52.846211 
L 208.256611 52.846211 
L 203.751167 53.447257 
L 196.71133 53.447257 
L 193.895481 54.649655 
L 189.10815 55.251006 
L 184.32125 55.852052 
L 181.786857 57.054449 
L 178.689553 57.6558 
L 174.465564 58.256846 
L 171.649716 60.060595 
L 168.833867 60.661641 
L 164.891333 60.661641 
L 159.822979 63.066436 
L 157.006698 64.870184 
L 155.035647 66.673628 
L 152.783141 68.477376 
L 151.093546 69.078422 
L 147.99581 69.078422 
L 144.053708 70.280819 
L 143.490366 70.280819 
L 141.23786 70.882171 
L 140.111175 70.882171 
L 138.422011 71.483217 
L 136.169073 73.888011 
L 133.63468 78.6976 
L 131.663629 79.298952 
L 129.692578 79.298952 
L 128.566325 79.899998 
L 127.43964 81.102395 
L 126.031932 81.703746 
L 123.778994 82.906144 
L 122.934196 82.906144 
L 122.089398 84.108541 
L 120.399803 85.911984 
L 119.555005 86.513336 
L 117.865841 88.91813 
L 115.612903 93.727719 
L 113.359965 96.73356 
L 111.388914 99.739706 
L 109.417863 102.1445 
L 108.009723 105.751692 
L 105.757217 108.757533 
L 104.349077 112.966076 
L 102.941368 119.579108 
L 99.280722 122.585254 
L 97.591126 130.40099 
L 95.056733 133.40683 
L 93.367138 136.412976 
L 92.240884 138.216419 
L 90.269834 138.817771 
L 87.453553 143.62736 
L 83.792907 145.430803 
L 81.821856 147.234552 
L 79.56935 150.841744 
L 78.724552 155.651333 
L 77.034956 158.657173 
L 76.190159 161.061968 
L 74.219108 165.871557 
L 72.810968 170.0801 
L 71.121372 176.092087 
L 69.713664 182.705119 
L 68.305524 187.514708 
L 67.742181 192.925649 
L 66.334473 195.931489 
L 64.926332 200.140033 
L 63.518624 203.146179 
L 62.673826 209.158165 
L 61.265686 215.170152 
L 60.702344 217.574946 
L 59.857546 222.985581 
L 58.449837 228.396522 
L 56.478787 232.60476 
L 55.633989 238.616746 
L 54.507304 245.230084 
L 53.662938 250.039673 
L 53.381051 259.0575 
L 53.099596 267.474281 
L 52.536253 277.694811 
L 52.536253 288.516387 
L 51.691455 299.337962 
L 51.691455 312.564332 
L 51.41 350.44 
" clip-path="url(#p1177510fef)" style="fill: none; stroke: #e63946; stroke-width: 2; stroke-linecap: square"/>
   </g>
   <g id="line2d_27">
    <path d="M 483.09 45.030476 
L 424.518794 45.631828 
L 399.175725 45.631828 
L 380.590606 45.631828 
L 363.413627 45.631828 
L 349.052497 46.232873 
L 337.225328 46.834225 
L 322.864198 47.435271 
L 317.513956 47.435271 
L 305.687219 47.435271 
L 298.084471 49.239019 
L 287.383987 49.239019 
L 280.062262 49.239019 
L 271.333261 49.239019 
L 264.293424 49.840065 
L 259.506092 50.441417 
L 255.000648 50.441417 
L 250.495204 51.643814 
L 244.863507 52.24486 
L 239.79472 52.846211 
L 236.134074 53.447257 
L 231.347174 55.251006 
L 226.278388 55.251006 
L 222.336286 57.054449 
L 218.67564 57.054449 
L 216.141246 58.256846 
L 211.353915 60.060595 
L 207.975156 61.864038 
L 202.343027 64.870184 
L 199.808634 65.47123 
L 196.992785 65.47123 
L 193.895481 65.47123 
L 189.952948 66.072582 
L 186.574188 69.078422 
L 183.476452 70.280819 
L 180.379148 70.280819 
L 176.999957 70.882171 
L 174.184109 72.084568 
L 170.523462 73.888011 
L 166.299474 75.69176 
L 164.046536 78.096555 
L 162.638827 78.096555 
L 160.104434 78.6976 
L 156.725243 81.102395 
L 154.754192 82.304792 
L 153.627939 82.906144 
L 150.248748 85.911984 
L 147.432899 88.316779 
L 144.617051 91.923971 
L 142.927455 93.126368 
L 140.111175 94.930117 
L 137.577213 96.73356 
L 135.887618 99.739706 
L 133.916567 102.745546 
L 131.663629 105.150341 
L 129.410691 106.95409 
L 124.905247 112.966076 
L 122.089398 117.174314 
L 119.555005 120.18046 
L 116.457701 123.787652 
L 113.07851 127.996195 
L 108.29161 130.40099 
L 104.630964 132.805784 
L 103.504279 137.014022 
L 100.970317 138.817771 
L 98.998835 144.829757 
L 96.464873 147.835598 
L 95.056733 149.037995 
L 93.085682 152.645187 
L 90.551289 156.252379 
L 88.861693 162.865717 
L 87.172098 163.466762 
L 86.3273 167.675306 
L 84.637705 171.883544 
L 82.103311 174.889689 
L 80.13226 178.496881 
L 78.724552 182.104073 
L 75.908272 187.514708 
L 74.782019 194.128046 
L 72.247625 199.538987 
L 71.121372 206.152019 
L 69.995119 210.360562 
L 68.868866 215.170152 
L 67.17927 220.580787 
L 65.489675 228.396522 
L 64.081535 235.610906 
L 63.800079 241.622892 
L 62.673826 245.83113 
L 61.265686 251.24207 
L 60.139433 256.05166 
L 59.01318 265.069487 
L 57.886495 272.885222 
L 56.1969 278.296162 
L 55.352102 284.308149 
L 54.507304 287.313989 
L 54.225849 297.534519 
L 52.536253 304.147551 
L 52.254798 309.558492 
L 51.691455 325.790703 
L 51.691455 335.409881 
L 51.41 350.44 
" clip-path="url(#p1177510fef)" style="fill: none; stroke-dasharray: 7.4,3.2; stroke-dashoffset: 0; stroke: #457b9d; stroke-width: 2"/>
   </g>
   <g id="line2d_28">
    <path d="M 483.09 45.030476 
L 411.283917 47.435271 
L 368.763869 48.036622 
L 339.478266 49.239019 
L 318.358754 51.643814 
L 303.152826 52.846211 
L 289.073151 52.846211 
L 277.246414 53.447257 
L 266.264475 54.048609 
L 260.069435 54.048609 
L 252.748142 55.251006 
L 245.144962 55.852052 
L 239.513265 55.852052 
L 233.03677 57.6558 
L 226.84173 58.256846 
L 223.462539 58.256846 
L 217.830842 59.459244 
L 213.888308 60.661641 
L 211.07246 61.864038 
L 207.411813 62.46539 
L 205.440763 62.46539 
L 202.061572 63.667787 
L 199.808634 64.268833 
L 198.963836 64.870184 
L 196.147987 65.47123 
L 193.895481 65.47123 
L 192.487341 65.47123 
L 190.797745 66.072582 
L 189.10815 66.072582 
L 186.574188 67.274979 
L 184.884593 67.876025 
L 183.194997 70.280819 
L 182.068312 70.280819 
L 180.660604 72.685614 
L 178.971008 73.888011 
L 175.310362 73.888011 
L 172.494513 74.489363 
L 171.931171 75.090409 
L 169.96012 75.69176 
L 167.425727 77.495203 
L 166.017587 79.899998 
L 165.454676 80.501349 
L 160.385889 80.501349 
L 158.414838 80.501349 
L 156.443788 81.102395 
L 153.909394 81.703746 
L 151.375001 82.304792 
L 149.967292 82.304792 
L 149.40395 83.50719 
L 147.714355 108.156487 
L 144.617051 109.358884 
L 143.490366 110.561281 
L 141.80077 111.162327 
L 140.111175 111.763679 
L 138.140124 113.567122 
L 136.732415 115.370871 
L 135.04282 115.971917 
L 134.198022 115.971917 
L 131.663629 117.775665 
L 129.129236 118.978063 
L 127.721527 121.984208 
L 126.031932 123.787652 
L 124.623791 126.793798 
L 124.060449 130.40099 
L 121.807943 132.204433 
L 118.992094 137.014022 
L 117.865841 140.020168 
L 115.049561 143.62736 
L 113.641852 150.240392 
L 111.388914 155.049981 
L 108.854521 159.258525 
L 106.88347 162.264365 
L 104.067621 168.877703 
L 101.533228 173.687292 
L 98.435924 177.294484 
L 94.775278 179.699279 
L 92.52234 183.306471 
L 89.987947 185.711265 
L 86.890643 188.717106 
L 84.356249 194.128046 
L 82.666654 195.931489 
L 80.414148 203.747225 
L 77.034956 207.354416 
L 73.937221 218.175992 
L 71.402828 226.592773 
L 70.276574 235.610906 
L 67.17927 247.634879 
L 64.644877 258.456454 
L 61.547141 272.885222 
L 59.294635 287.915341 
L 57.60504 303.546505 
L 54.789191 318.576319 
L 53.944393 328.796849 
L 53.099596 337.21363 
L 52.536253 342.023219 
L 51.973342 345.630411 
L 51.691455 347.433854 
L 51.691455 349.237603 
L 51.41 350.44 
L 51.41 350.44 
L 51.41 350.44 
" clip-path="url(#p1177510fef)" style="fill: none; stroke-dasharray: 12.8,3.2,2,3.2; stroke-dashoffset: 0; stroke: #2a9d8f; stroke-width: 2"/>
   </g>
   <g id="line2d_29">
    <path d="M 483.09 45.030476 
L 483.09 45.030476 
L 483.09 45.030476 
L 482.808545 45.030476 
L 482.526658 45.030476 
L 482.526658 45.030476 
L 481.963747 45.030476 
L 481.963747 45.030476 
L 481.963747 45.030476 
L 480.837062 45.030476 
L 480.274151 45.030476 
L 479.429354 45.030476 
L 477.176416 45.030476 
L 475.48682 45.030476 
L 472.108061 45.030476 
L 466.194476 45.030476 
L 459.154639 45.030476 
L 448.1727 45.030476 
L 435.219278 45.030476 
L 420.295237 45.030476 
L 404.244511 45.631828 
L 387.348988 46.232873 
L 371.016375 46.232873 
L 355.810447 46.834225 
L 339.478266 48.036622 
L 324.83568 49.239019 
L 309.347865 49.840065 
L 293.860482 51.042463 
L 282.596656 54.649655 
L 268.798868 58.858198 
L 259.224637 59.459244 
L 248.805609 60.661641 
L 239.79472 66.072582 
L 231.065287 69.679773 
L 222.054399 75.090409 
L 215.859359 78.6976 
L 208.819522 83.50719 
L 200.371976 86.513336 
L 195.866532 90.721573 
L 190.234835 92.525322 
L 185.72939 94.930117 
L 180.379148 99.138354 
L 178.407666 105.751692 
L 174.465564 108.757533 
L 169.396778 110.561281 
L 165.736131 115.370871 
L 162.638827 122.585254 
L 159.259636 129.198592 
L 155.59899 136.412976 
L 154.19085 137.014022 
L 150.530203 141.823611 
L 147.99581 146.6332 
L 147.151012 153.246538 
L 144.617051 155.651333 
L 141.519315 160.460922 
L 139.266809 165.871557 
L 136.732415 168.877703 
L 133.916567 172.484895 
L 132.508427 177.294484 
L 129.129236 183.907516 
L 121.807943 189.919503 
L 115.612903 195.931489 
L 107.446812 203.146179 
L 101.251773 212.765357 
L 97.027784 215.771198 
L 93.648593 220.580787 
L 90.551289 228.396522 
L 88.580238 232.003714 
L 87.73544 238.0157 
L 84.919592 241.021541 
L 83.229996 243.426335 
L 82.385198 249.438322 
L 80.414148 256.05166 
L 79.850805 258.456454 
L 77.879754 259.658852 
L 75.345361 265.670838 
L 73.37431 271.682824 
L 70.55803 275.290016 
L 69.431777 278.897208 
L 67.460726 280.099606 
L 65.77113 284.909195 
L 64.644877 289.718784 
L 63.800079 290.921181 
L 62.391939 294.528373 
L 61.265686 296.332122 
L 61.265686 297.534519 
L 59.857546 299.337962 
L 59.294635 301.141711 
L 57.886495 302.344108 
L 57.60504 304.748903 
L 57.041697 305.349949 
L 55.633989 305.9513 
L 54.507304 307.153697 
L 53.662938 308.957141 
L 53.381051 310.760889 
L 52.536253 313.76673 
L 52.536253 316.171524 
L 52.536253 317.975273 
L 52.536253 329.999246 
L 52.254798 341.421868 
L 51.41 350.44 
" clip-path="url(#p1177510fef)" style="fill: none; stroke-dasharray: 2,3.3; stroke-dashoffset: 0; stroke: #f4a261; stroke-width: 2"/>
   </g>
   <g id="patch_3">
    <path d="M 51.41 350.44 
L 51.41 29.76 
" style="fill: none; stroke: #000000; stroke-width: 0.8; stroke-linejoin: miter; stroke-linecap: square"/>
   </g>
   <g id="patch_4">
    <path d="M 483.09 350.44 
L 483.09 29.76 
" style="fill: none; stroke: #000000; stroke-width: 0.8; stroke-linejoin: miter; stroke-linecap: square"/>
   </g>
   <g id="patch_5">
    <path d="M 51.41 350.44 
L 483.09 350.44 
" style="fill: none; stroke: #000000; stroke-width: 0.8; stroke-linejoin: miter; stroke-linecap: square"/>
   </g>
   <g id="patch_6">
    <path d="M 51.41 29.76 
L 483.09 29.76 
" style="fill: none; stroke: #000000; stroke-width: 0.8; stroke-linejoin: miter; stroke-linecap: square"/>
   </g>
   <g id="text_15">
    <!-- ROC Curve Comparison -->
    <g transform="translate(184.974844 23.76) scale(0.14 -0.14)">
     <defs>
      <path id="DejaVuSans-4f" d="M 2522 4238 
Q 1834 4238 1429 3725 
Q 1025 3213 1025 2328 
Q 1025 1447 1429 934 
Q 1834 422 2522 422 
Q 3209 422 3611 934 
Q 4013 1447 4013 2328 
Q 4013 3213 3611 3725 
Q 3209 4238 2522 4238 
z
M 2522 4750 
Q 3503 4750 4090 4092 
Q 4678 3434 4678 2328 
Q 4678 1225 4090 567 
Q 3503 -91 2522 -91 
Q 1538 -91 948 565 
Q 359 1222 359 2328 
Q 359 3434 948 4092 
Q 1538 4750 2522 4750 
z
" transform="scale(0.015625)"/>
      <path id="DejaVuSans-43" d="M 4122 4306 
L 4122 3641 
Q 3803 3938 3442 4084 
Q 3081 4231 2675 4231 
Q 1875 4231 1450 3742 
Q 1025 3253 1025 2328 
Q 1025 1406 1450 917 
Q 1875 428 2675 428 
Q 3081 428 3442 575 
Q 3803 722 4122 1019 
L 4122 359 
Q 3791 134 3420 21 
Q 3050 -91 2638 -91 
Q 1578 -91 968 557 
Q 359 1206 359 2328 
Q 359 3453 968 4101 
Q 1578 4750 2638 4750 
Q 3056 4750 3426 4639 
Q 3797 4528 4122 4306 
z
" transform="scale(0.015625)"/>
      <path id="DejaVuSans-6d" d="M 3328 2828 
Q 3544 3216 3844 3400 
Q 4144 3584 4550 3584 
Q 5097 3584 5394 3201 
Q 5691 2819 5691 2113 
L 5691 0 
L 5113 0 
L 5113 2094 
Q 5113 2597 4934 2840 
Q 4756 3084 4391 3084 
Q 3944 3084 3684 2787 
Q 3425 2491 3425 1978 
L 3425 0 
L 2847 0 
L 2847 2094 
Q 2847 2600 2669 2842 
Q 2491 3084 2119 3084 
Q 1678 3084 1418 2786 
Q 1159 2488 1159 1978 
L 1159 0 
L 581 0 
L 581 3500 
L 1159 3500 
L 1159 2956 
Q 1356 3278 1631 3431 
Q 1906 3584 2284 3584 
Q 2666 3584 2933 3390 
Q 3200 3197 3328 2828 
z
" transform="scale(0.015625)"/>
      <path id="DejaVuSans-70" d="M 1159 525 
L 1159 -1331 
L 581 -1331 
L 581 3500 
L 1159 3500 
L 1159 2969 
Q 1341 3281 1617 3432 
Q 1894 3584 2278 3584 
Q 2916 3584 3314 3078 
Q 3713 2572 3713 1747 
Q 3713 922 3314 415 
Q 2916 -91 2278 -91 
Q 1894 -91 1617 61 
Q 1341 213 1159 525 
z
M 3116 1747 
Q 3116 2381 2855 2742 
Q 2594 3103 2138 3103 
Q 1681 3103 1420 2742 
Q 1159 2381 1159 1747 
Q 1159 1113 1420 752 
Q 1681 391 2138 391 
Q 2594 391 2855 752 
Q 3116 1113 3116 1747 
z
" transform="scale(0.015625)"/>
      <path id="DejaVuSans-6e" d="M 3513 2113 
L 3513 0 
L 2938 0 
L 2938 2094 
Q 2938 2591 2744 2837 
Q 2550 3084 2163 3084 
Q 1697 3084 1428 2787 
Q 1159 2491 1159 1978 
L 1159 0 
L 581 0 
L 581 3500 
L 1159 3500 
L 1159 2956 
Q 1366 3272 1645 3428 
Q 1925 3584 2291 3584 
Q 2894 3584 3203 3211 
Q 3513 2838 3513 2113 
z
" transform="scale(0.015625)"/>
     </defs>
     <use xlink:href="#DejaVuSans-52"/>
     <use xlink:href="#DejaVuSans-4f" transform="translate(69.482422 0)"/>
     <use xlink:href="#DejaVuSans-43" transform="translate(148.193359 0)"/>
     <use xlink:href="#DejaVuSans-20" transform="translate(218.017578 0)"/>
     <use xlink:href="#DejaVuSans-43" transform="translate(249.804688 0)"/>
     <use xlink:href="#DejaVuSans-75" transform="translate(319.628906 0)"/>
     <use xlink:href="#DejaVuSans-72" transform="translate(383.007812 0)"/>
     <use xlink:href="#DejaVuSans-76" transform="translate(424.121094 0)"/>
     <use xlink:href="#DejaVuSans-65" transform="translate(483.300781 0)"/>
     <use xlink:href="#DejaVuSans-20" transform="translate(544.824219 0)"/>
     <use xlink:href="#DejaVuSans-43" transform="translate(576.611328 0)"/>
     <use xlink:href="#DejaVuSans-6f" transform="translate(646.435547 0)"/>
     <use xlink:href="#DejaVuSans-6d" transform="translate(707.617188 0)"/>
     <use xlink:href="#DejaVuSans-70" transform="translate(805.029297 0)"/>
     <use xlink:href="#DejaVuSans-61" transform="translate(868.505859 0)"/>
     <use xlink:href="#DejaVuSans-72" transform="translate(929.785156 0)"/>
     <use xlink:href="#DejaVuSans-69" transform="translate(970.898438 0)"/>
     <use xlink:href="#DejaVuSans-73" transform="translate(998.681641 0)"/>
     <use xlink:href="#DejaVuSans-6f" transform="translate(1050.78125 0)"/>
     <use xlink:href="#DejaVuSans-6e" transform="translate(1111.962891 0)"/>
    </g>
   </g>
   <g id="legend_1">
    <g id="patch_7">
     <path d="M 340.669219 344.94 
L 475.39 344.94 
Q 477.59 344.94 477.59 342.74 
L 477.59 263.110312 
Q 477.59 260.910312 475.39 260.910312 
L 340.669219 260.910312 
Q 338.469219 260.910312 338.469219 263.110312 
L 338.469219 342.74 
Q 338.469219 344.94 340.669219 344.94 
z
" style="fill: #ffffff; opacity: 0.8; stroke: #000000; stroke-linejoin: miter"/>
    </g>
    <g id="line2d_30">
     <path d="M 342.869219 269.818594 
L 353.869219 269.818594 
L 364.869219 269.818594 
" style="fill: none; stroke-dasharray: 5.55,2.4; stroke-dashoffset: 0; stroke: #808080; stroke-width: 1.5"/>
    </g>
    <g id="text_16">
     <!-- Random Guess -->
     <g transform="translate(373.669219 273.668594) scale(0.11 -0.11)">
      <defs>
       <path id="DejaVuSans-64" d="M 2906 2969 
L 2906 4863 
L 3481 4863 
L 3481 0 
L 2906 0 
L 2906 525 
Q 2725 213 2448 61 
Q 2172 -91 1784 -91 
Q 1150 -91 751 415 
Q 353 922 353 1747 
Q 353 2572 751 3078 
Q 1150 3584 1784 3584 
Q 2172 3584 2448 3432 
Q 2725 3281 2906 2969 
z
M 947 1747 
Q 947 1113 1208 752 
Q 1469 391 1925 391 
Q 2381 391 2643 752 
Q 2906 1113 2906 1747 
Q 2906 2381 2643 2742 
Q 2381 3103 1925 3103 
Q 1469 3103 1208 2742 
Q 947 2381 947 1747 
z
" transform="scale(0.015625)"/>
       <path id="DejaVuSans-47" d="M 3809 666 
L 3809 1919 
L 2778 1919 
L 2778 2438 
L 4434 2438 
L 4434 434 
Q 4069 175 3628 42 
Q 3188 -91 2688 -91 
Q 1594 -91 976 548 
Q 359 1188 359 2328 
Q 359 3472 976 4111 
Q 1594 4750 2688 4750 
Q 3144 4750 3555 4637 
Q 3966 4525 4313 4306 
L 4313 3634 
Q 3963 3931 3569 4081 
Q 3175 4231 2741 4231 
Q 1884 4231 1454 3753 
Q 1025 3275 1025 2328 
Q 1025 1384 1454 906 
Q 1884 428 2741 428 
Q 3075 428 3337 486 
Q 3600 544 3809 666 
z
" transform="scale(0.015625)"/>
      </defs>
      <use xlink:href="#DejaVuSans-52"/>
      <use xlink:href="#DejaVuSans-61" transform="translate(67.232422 0)"/>
      <use xlink:href="#DejaVuSans-6e" transform="translate(128.511719 0)"/>
      <use xlink:href="#DejaVuSans-64" transform="translate(191.890625 0)"/>
      <use xlink:href="#DejaVuSans-6f" transform="translate(255.367188 0)"/>
      <use xlink:href="#DejaVuSans-6d" transform="translate(316.548828 0)"/>
      <use xlink:href="#DejaVuSans-20" transform="translate(413.960938 0)"/>
      <use xlink:href="#DejaVuSans-47" transform="translate(445.748047 0)"/>
      <use xlink:href="#DejaVuSans-75" transform="translate(523.238281 0)"/>
      <use xlink:href="#DejaVuSans-65" transform="translate(586.617188 0)"/>
      <use xlink:href="#DejaVuSans-73" transform="translate(648.140625 0)"/>
      <use xlink:href="#DejaVuSans-73" transform="translate(700.240234 0)"/>
     </g>
    </g>
    <g id="line2d_31">
     <path d="M 342.869219 285.964531 
L 353.869219 285.964531 
L 364.869219 285.964531 
" style="fill: none; stroke: #e63946; stroke-width: 2; stroke-linecap: square"/>
    </g>
    <g id="text_17">
     <!-- GE-MRGNN (Ours) -->
     <g transform="translate(373.669219 289.814531) scale(0.11 -0.11)">
      <defs>
       <path id="DejaVuSans-45" d="M 628 4666 
L 3578 4666 
L 3578 4134 
L 1259 4134 
L 1259 2753 
L 3481 2753 
L 3481 2222 
L 1259 2222 
L 1259 531 
L 3634 531 
L 3634 0 
L 628 0 
L 628 4666 
z
" transform="scale(0.015625)"/>
       <path id="DejaVuSans-2d" d="M 313 2009 
L 1997 2009 
L 1997 1497 
L 313 1497 
L 313 2009 
z
" transform="scale(0.015625)"/>
       <path id="DejaVuSans-4d" d="M 628 4666 
L 1569 4666 
L 2759 1491 
L 3956 4666 
L 4897 4666 
L 4897 0 
L 4281 0 
L 4281 4097 
L 3078 897 
L 2444 897 
L 1241 4097 
L 1241 0 
L 628 0 
L 628 4666 
z
" transform="scale(0.015625)"/>
       <path id="DejaVuSans-4e" d="M 628 4666 
L 1478 4666 
L 3547 763 
L 3547 4666 
L 4159 4666 
L 4159 0 
L 3309 0 
L 1241 3903 
L 1241 0 
L 628 0 
L 628 4666 
z
" transform="scale(0.015625)"/>
      </defs>
      <use xlink:href="#DejaVuSans-47"/>
      <use xlink:href="#DejaVuSans-45" transform="translate(77.490234 0)"/>
      <use xlink:href="#DejaVuSans-2d" transform="translate(140.673828 0)"/>
      <use xlink:href="#DejaVuSans-4d" transform="translate(176.757812 0)"/>
      <use xlink:href="#DejaVuSans-52" transform="translate(263.037109 0)"/>
      <use xlink:href="#DejaVuSans-47" transform="translate(332.519531 0)"/>
      <use xlink:href="#DejaVuSans-4e" transform="translate(410.009766 0)"/>
      <use xlink:href="#DejaVuSans-4e" transform="translate(484.814453 0)"/>
      <use xlink:href="#DejaVuSans-20" transform="translate(559.619141 0)"/>
      <use xlink:href="#DejaVuSans-28" transform="translate(591.40625 0)"/>
      <use xlink:href="#DejaVuSans-4f" transform="translate(630.419922 0)"/>
      <use xlink:href="#DejaVuSans-75" transform="translate(709.130859 0)"/>
      <use xlink:href="#DejaVuSans-72" transform="translate(772.509766 0)"/>
      <use xlink:href="#DejaVuSans-73" transform="translate(813.623047 0)"/>
      <use xlink:href="#DejaVuSans-29" transform="translate(865.722656 0)"/>
     </g>
    </g>
    <g id="line2d_32">
     <path d="M 342.869219 302.110469 
L 353.869219 302.110469 
L 364.869219 302.110469 
" style="fill: none; stroke-dasharray: 7.4,3.2; stroke-dashoffset: 0; stroke: #457b9d; stroke-width: 2"/>
    </g>
    <g id="text_18">
     <!-- R-GCN -->
     <g transform="translate(373.669219 305.960469) scale(0.11 -0.11)">
      <use xlink:href="#DejaVuSans-52"/>
      <use xlink:href="#DejaVuSans-2d" transform="translate(65.482422 0)"/>
      <use xlink:href="#DejaVuSans-47" transform="translate(105.191406 0)"/>
      <use xlink:href="#DejaVuSans-43" transform="translate(182.681641 0)"/>
      <use xlink:href="#DejaVuSans-4e" transform="translate(252.505859 0)"/>
     </g>
    </g>
    <g id="line2d_33">
     <path d="M 342.869219 318.256406 
L 353.869219 318.256406 
L 364.869219 318.256406 
" style="fill: none; stroke-dasharray: 12.8,3.2,2,3.2; stroke-dashoffset: 0; stroke: #2a9d8f; stroke-width: 2"/>
    </g>
    <g id="text_19">
     <!-- HAN -->
     <g transform="translate(373.669219 322.106406) scale(0.11 -0.11)">
      <defs>
       <path id="DejaVuSans-48" d="M 628 4666 
L 1259 4666 
L 1259 2753 
L 3553 2753 
L 3553 4666 
L 4184 4666 
L 4184 0 
L 3553 0 
L 3553 2222 
L 1259 2222 
L 1259 0 
L 628 0 
L 628 4666 
z
" transform="scale(0.015625)"/>
       <path id="DejaVuSans-41" d="M 2188 4044 
L 1331 1722 
L 3047 1722 
L 2188 4044 
z
M 1831 4666 
L 2547 4666 
L 4325 0 
L 3669 0 
L 3244 1197 
L 1141 1197 
L 716 0 
L 50 0 
L 1831 4666 
z
" transform="scale(0.015625)"/>
      </defs>
      <use xlink:href="#DejaVuSans-48"/>
      <use xlink:href="#DejaVuSans-41" transform="translate(75.195312 0)"/>
      <use xlink:href="#DejaVuSans-4e" transform="translate(143.603516 0)"/>
     </g>
    </g>
    <g id="line2d_34">
     <path d="M 342.869219 334.402344 
L 353.869219 334.402344 
L 364.869219 334.402344 
" style="fill: none; stroke-dasharray: 2,3.3; stroke-dashoffset: 0; stroke: #f4a261; stroke-width: 2"/>
    </g>
    <g id="text_20">
     <!-- GCN -->
     <g transform="translate(373.669219 338.252344) scale(0.11 -0.11)">
      <use xlink:href="#DejaVuSans-47"/>
      <use xlink:href="#DejaVuSans-43" transform="translate(77.490234 0)"/>
      <use xlink:href="#DejaVuSans-4e" transform="translate(147.314453 0)"/>
     </g>
    </g>
   </g>
  </g>
 </g>
 <defs>
  <clipPath id="p1177510fef">
   <rect x="51.41" y="29.76" width="431.68" height="320.68"/>
  </clipPath>
 </defs>
</svg>
